<?xml version="1.0" encoding="UTF-8"?>
<svg id="Calque_1" data-name="Calque 1" xmlns="http://www.w3.org/2000/svg" viewBox="0 0 210.27 267.05">
  <path d="M210.26,129.36l-.15-3.86c-1.85-32.67-15.91-63.43-39.04-86.49C148.74,16.73,119.23,2.93,87.72.44l-2.48-.14-3.75-.08c-.12,0-.63-.14-.51-.22l-8.38.03c-1.36.28-2.82.18-4.31.27l-2.45.14C41.98,2.33,19.3,10.71,0,24.31c2.34,1.23,4.64,2.52,6.9,3.88,7.53-5.01,15.62-9.24,24.18-12.57,29.2-11.36,61.82-11.42,91.06-.14,32.98,12.71,59.31,38.8,72.32,71.66,11.6,29.27,11.8,62.05.55,91.47-12.81,33.47-39.35,60.15-72.92,73.08-29.75,11.46-62.81,11.16-92.24-.64-2.95-1.18-5.84-2.48-8.67-3.87-2.06,1.64-4.17,3.23-6.33,4.75,16.56,8.7,34.89,13.91,53.87,14.98l3.86.15h8.64s3.66-.15,3.66-.15c45.31-2.55,86.31-28.59,108.49-68.12,9.89-17.62,15.94-37.21,16.75-57.36l.15-3.66v-8.4Z"/>
</svg>