<?xml version="1.0" encoding="UTF-8"?>
<svg id="Calque_1" xmlns="http://www.w3.org/2000/svg" version="1.1" viewBox="0 0 290.5 329.4">
  <!-- Generator: Adobe Illustrator 29.7.0, SVG Export Plug-In . SVG Version: 2.1.1 Build 138)  -->
  <defs>
    <style>
      .st0 {
        fill: #294294;
      }

      .st1 {
        fill: #e6007e;
      }
    </style>
  </defs>
  <path class="st0" d="M144.9,295.5c-73.7,0-133.6-59.9-133.6-133.6S71.3,28.4,144.9,28.4s133.6,59.9,133.6,133.6-59.9,133.6-133.6,133.6ZM144.9,35.4c-69.8,0-126.5,56.8-126.5,126.5s56.8,126.5,126.5,126.5,126.5-56.8,126.5-126.5-56.8-126.5-126.5-126.5Z"/>
  <g>
    <path class="st0" d="M73.5,81.7h7.3v3.8c1.4-3,3.9-4.3,7.1-4.3s6,1.4,7.2,4.7c1.5-3.2,4.2-4.7,7.8-4.7s8,2.9,8,9.9v53.5h-7.5v-52.9c0-2.9-1.1-4.1-3.6-4.1s-2.9.6-4,1.8c0,.5,0,1.1,0,1.7v53.5h-7.5v-52.9c0-2.9-1.1-4.1-3.6-4.1s-2.8.5-3.9,1.7v55.3h-7.5v-62.9Z"/>
    <path class="st0" d="M150.7,132.7v-43.5c0-6.4,2.6-10.2,8.2-10.2s5.6,1.3,7,4.2v-16.4h7.5v75.5h-7.1v-4.3c-1.4,3.4-3.9,4.9-7.3,4.9-5.6,0-8.2-3.8-8.2-10.2ZM161.9,136.4c1.7,0,2.9-.6,4.1-1.8v-47.3c-1.1-1.2-2.4-1.8-4.1-1.8-2.5,0-3.7,1.2-3.7,4.3v42.4c0,3.1,1.2,4.3,3.7,4.3Z"/>
    <path class="st0" d="M179.5,66.8h7.5v9.1h-7.5v-9.1ZM179.5,79.5h7.5v62.9h-7.5v-62.9Z"/>
    <path class="st0" d="M208.2,137c-1,3.6-3.8,6-7.6,6-5.7,0-8.1-3.4-8.1-9.4v-12.5c0-6.2,1.6-9.5,7-13.1l8.2-5.4v-13c0-3.1-1.4-4.2-3.8-4.2s-3.8,1.1-3.8,4.2v10.9h-7.5v-10.9c0-6.9,4.3-10.5,11.3-10.5s11.2,3.6,11.2,10.5v36.6c0,6.2.2,11.3,1.1,16.3h-7.2c-.4-1.8-.7-3.6-.9-5.4ZM203.5,136.6c2.1,0,3.5-.9,4.5-2.7-.2-2.4-.2-5-.2-7.8v-16.2l-4,2.7c-2.7,1.9-3.8,3.6-3.8,7.5v12.5c0,2.8,1.2,4,3.5,4Z"/>
    <path class="st1" d="M166.6,148.4v14h-5.4v-14h-10.3v28.8h11.9v1.1c0,11.4-3.9,21.7-13.5,21.7v12.3c18.9,0,27.9-16.6,27.9-35.3v-28.6h-10.7Z"/>
    <g>
      <path class="st0" d="M88.2,217.2v-43.5c0-6.4,2.6-10.2,8.2-10.2s5.6,1.3,7,4.2v-16.4h7.5v75.5h-7.1v-4.4c-1.4,3.4-3.9,4.9-7.3,4.9-5.6,0-8.2-3.8-8.2-10.2ZM99.4,220.9c1.7,0,2.9-.6,4.1-1.8v-47.3c-1.1-1.2-2.4-1.8-4.1-1.8-2.5,0-3.7,1.2-3.7,4.3v42.4c0,3.1,1.2,4.3,3.7,4.3Z"/>
      <path class="st0" d="M135.2,221.4c-1,3.6-3.8,6-7.6,6-5.7,0-8.1-3.4-8.1-9.4v-12.5c0-6.2,1.5-9.5,7-13.1l8.2-5.4v-13c0-3.1-1.4-4.2-3.8-4.2s-3.8,1.1-3.8,4.2v10.9h-7.5v-10.9c0-6.9,4.3-10.5,11.3-10.5s11.2,3.6,11.2,10.5v36.6c0,6.2.2,11.3,1.1,16.3h-7.2c-.4-1.8-.7-3.6-.9-5.4ZM130.4,221c2.1,0,3.5-.9,4.5-2.7-.2-2.4-.2-5-.2-7.8v-16.2l-4,2.7c-2.7,1.9-3.8,3.6-3.8,7.4v12.5c0,2.8,1.2,4,3.5,4Z"/>
      <path class="st0" d="M181.4,216.6v-12.3h7.5v12.3c0,3.3,1.3,4.5,3.7,4.5s3.8-1.2,3.8-4.5v-8.1c0-4.5-.9-6.3-4-9.1l-4.7-4c-4.2-3.6-6.3-7.6-6.3-14.6v-6.6c0-7.1,4.2-10.7,11.2-10.7s11.1,3.6,11.1,10.7v11h-7.3v-11c0-3.2-1.4-4.4-3.8-4.4s-3.7,1.2-3.7,4.4v6.6c0,4.1.8,6.3,3.9,9l4.7,4c4.1,3.5,6.3,7.1,6.3,14.7v8.1c0,7.1-4.1,10.8-11.1,10.8s-11.2-3.6-11.2-10.8Z"/>
    </g>
    <path class="st1" d="M131.2,126.6v-1.1h11.9v-28.8h-26.3v28.6c0,18.7,9.1,35.3,27.9,35.3v-12.3c-9.6,0-13.5-10.3-13.5-21.7ZM127.1,109.2h5.6v5.6h-5.6v-5.6Z"/>
  </g>
  <g>
    <g>
      <polygon class="st0" points="138.1 245.9 131 249.2 131 242.5 129.2 242.5 129.2 254 131 254 131 251 138.1 247.7 138.1 254 139.9 254 139.9 242.5 138.1 242.5 138.1 245.9"/>
      <path class="st0" d="M177.4,245.7c0-1,1.6-1.7,3.3-1.7s3.3.8,3.3,1.8h1.9c0-2.1-2.3-3.5-5.2-3.5s-5.2,1.4-5.2,3.5v1l8.7,4c-.2.9-1.8,1.6-3.4,1.6s-3.4-.8-3.4-1.8h-1.9c0,2.1,2.4,3.5,5.3,3.5s5.3-1.4,5.3-3.5v-.9l-8.7-4Z"/>
      <polygon class="st0" points="162.5 242.5 158.1 252.9 153.7 242.5 151.8 242.5 156.6 254 159.6 254 164.4 242.5 162.5 242.5"/>
      <path class="st0" d="M153.7,254l-4.9-11.5h-2.9l-4.9,11.5h1.9l.4-.9,6.7-3.1,1.7,4h1.9ZM147.3,243.6l2,4.8-5,2.4,3-7.1Z"/>
      <path class="st0" d="M175.2,254l-4.9-11.5h-2.9l-4.9,11.5h1.9l.4-.9,6.7-3.1,1.7,4h1.9ZM168.9,243.6l2,4.8-5,2.4,3-7.1Z"/>
    </g>
    <g>
      <path class="st0" d="M108.5,254.1c-.3,0-.5-.2-.8-.3-.2-.1-.4-.3-.6-.4-.2-.2-.3-.4-.5-.6v1.1h-1.7v-11.7h1.7v4.2c.1-.2.3-.4.5-.6.2-.2.4-.3.6-.4.2-.1.5-.2.8-.3s.6-.1.9-.1.7,0,1.1.1c.3,0,.7.2,1,.4.3.2.6.4.8.7.2.3.5.6.6.9s.3.7.4,1.1c0,.4.1.9.1,1.3h0c0,.7-.1,1.4-.3,1.9s-.5,1-.9,1.4c-.4.4-.8.7-1.3.9-.5.2-1,.3-1.6.3s-.6,0-.9-.1ZM109.8,252.7c.2,0,.4-.1.6-.3s.4-.3.5-.4.3-.4.4-.6.2-.5.2-.8c0-.3,0-.6,0-1h0c0-.4,0-.7,0-1,0-.3-.1-.5-.2-.8s-.2-.4-.4-.6-.3-.3-.5-.4-.4-.2-.6-.3c-.2,0-.5,0-.7,0s-.5,0-.7,0c-.2,0-.4.1-.6.3s-.4.3-.5.4-.3.4-.4.6-.2.5-.2.8c0,.3,0,.6,0,1h0c0,.4,0,.7,0,1s.1.5.2.8.2.4.4.6.3.3.5.4.4.2.6.3c.2,0,.4,0,.7,0s.5,0,.7,0Z"/>
      <path class="st0" d="M115.4,255.2h.4c.3,0,.5,0,.7,0s.3,0,.5-.1c.1,0,.2-.2.3-.3,0-.2.2-.4.3-.6v-.2c0,0-3.6-8.6-3.6-8.6h1.8l2.7,6.7h0l2.8-6.7h1.7l-3.9,8.9c-.2.4-.3.7-.4.9-.1.3-.3.5-.4.7-.1.2-.3.3-.4.4-.2.1-.3.2-.5.3-.2,0-.4.1-.7.1s-.5,0-.9,0h-.5v-1.4Z"/>
    </g>
  </g>
</svg>