<?xml version="1.0" encoding="UTF-8"?>
<svg id="Calque_1" xmlns="http://www.w3.org/2000/svg" version="1.1" viewBox="0 0 290.5 329.4">
  <!-- Generator: Adobe Illustrator 29.7.0, SVG Export Plug-In . SVG Version: 2.1.1 Build 138)  -->
  <defs>
    <style>
      .st0 {
        fill: #294294;
      }

      .st1 {
        fill: #e6007e;
      }
    </style>
  </defs>
  <path class="st0" d="M11.7,130.9h7.3v3.8c1.4-3,3.9-4.3,7.1-4.3s6,1.4,7.2,4.7c1.5-3.2,4.2-4.7,7.8-4.7s8,2.9,8,9.9v53.5h-7.5v-52.9c0-2.9-1.1-4.1-3.6-4.1s-2.9.6-4,1.8c0,.5,0,1.1,0,1.7v53.5h-7.5v-52.9c0-2.9-1.1-4.1-3.6-4.1s-2.8.5-3.9,1.7v55.3h-7.5v-62.9Z"/>
  <path class="st0" d="M88.8,181.9v-43.5c0-6.4,2.6-10.2,8.2-10.2s5.6,1.3,7,4.2v-16.4h7.5v75.5h-7.1v-4.3c-1.4,3.4-3.9,4.9-7.3,4.9-5.6,0-8.2-3.8-8.2-10.2ZM100,185.7c1.7,0,2.9-.6,4.1-1.8v-47.3c-1.1-1.2-2.4-1.8-4.1-1.8-2.5,0-3.7,1.2-3.7,4.3v42.4c0,3.1,1.2,4.3,3.7,4.3Z"/>
  <path class="st0" d="M117.6,116.1h7.5v9.1h-7.5v-9.1ZM117.7,128.7h7.5v62.9h-7.5v-62.9Z"/>
  <path class="st0" d="M146.4,186.2c-1,3.6-3.8,6-7.6,6-5.7,0-8.1-3.4-8.1-9.4v-12.5c0-6.2,1.6-9.5,7-13.1l8.2-5.4v-13c0-3.1-1.4-4.2-3.8-4.2s-3.8,1.1-3.8,4.2v10.9h-7.5v-10.9c0-6.9,4.3-10.5,11.3-10.5s11.2,3.6,11.2,10.5v36.6c0,6.2.2,11.3,1.1,16.3h-7.2c-.4-1.8-.7-3.6-.9-5.4ZM141.6,185.8c2.1,0,3.5-.9,4.5-2.7-.2-2.4-.2-5-.2-7.8v-16.2l-4,2.7c-2.7,1.9-3.8,3.6-3.8,7.5v12.5c0,2.8,1.2,4,3.5,4Z"/>
  <path class="st1" d="M241.1,111.9v14h-5.4v-14h-10.3v28.8h11.9v1.1c0,11.4-3.9,21.7-13.5,21.7v12.3c18.9,0,27.9-16.6,27.9-35.3v-28.6h-10.7Z"/>
  <g>
    <path class="st0" d="M162.7,180.6v-43.5c0-6.4,2.6-10.2,8.2-10.2s5.6,1.3,7,4.2v-16.4h7.5v75.5h-7.1v-4.4c-1.4,3.4-3.9,4.9-7.3,4.9-5.6,0-8.2-3.8-8.2-10.2ZM173.9,184.3c1.7,0,2.9-.6,4.1-1.8v-47.3c-1.1-1.2-2.4-1.8-4.1-1.8-2.5,0-3.7,1.2-3.7,4.3v42.4c0,3.1,1.2,4.3,3.7,4.3Z"/>
    <path class="st0" d="M209.7,184.8c-1,3.6-3.8,6-7.6,6-5.7,0-8.1-3.4-8.1-9.4v-12.5c0-6.2,1.5-9.5,7-13.1l8.2-5.4v-13c0-3.1-1.4-4.2-3.8-4.2s-3.8,1.1-3.8,4.2v10.9h-7.5v-10.9c0-6.9,4.3-10.5,11.3-10.5s11.2,3.6,11.2,10.5v36.6c0,6.2.2,11.3,1.1,16.3h-7.2c-.4-1.8-.7-3.6-.9-5.4ZM204.9,184.5c2.1,0,3.5-.9,4.5-2.7-.2-2.4-.2-5-.2-7.8v-16.2l-4,2.7c-2.7,1.9-3.8,3.6-3.8,7.4v12.5c0,2.8,1.2,4,3.5,4Z"/>
    <path class="st0" d="M255.9,180v-12.3h7.5v12.3c0,3.3,1.3,4.5,3.7,4.5s3.8-1.2,3.8-4.5v-8.1c0-4.5-.9-6.3-4-9.1l-4.7-4c-4.2-3.6-6.3-7.6-6.3-14.6v-6.6c0-7.1,4.2-10.7,11.2-10.7s11.1,3.6,11.1,10.7v11h-7.3v-11c0-3.2-1.4-4.4-3.8-4.4s-3.7,1.2-3.7,4.4v6.6c0,4.1.8,6.3,3.9,9l4.7,4c4.1,3.5,6.3,7.1,6.3,14.7v8.1c0,7.1-4.1,10.8-11.1,10.8s-11.2-3.6-11.2-10.8Z"/>
  </g>
  <path class="st1" d="M69.3,175.8v-1.1h11.9v-28.8h-26.3v28.6c0,18.7,9.1,35.3,27.9,35.3v-12.3c-9.6,0-13.5-10.3-13.5-21.7ZM65.2,158.4h5.6v5.6h-5.6v-5.6Z"/>
</svg>