<svg xmlns="http://www.w3.org/2000/svg" xmlns:xlink="http://www.w3.org/1999/xlink" width="3000" zoomAndPan="magnify" viewBox="0 0 2250 2250.000011" height="3000" preserveAspectRatio="xMidYMid meet" version="1.0"><defs><g/><clipPath id="f04ea9e487"><path d="M 0.046875 0.707031 L 1653.589844 0.707031 L 1653.589844 1654.25 L 0.046875 1654.25 Z M 0.046875 0.707031 " clip-rule="nonzero"/></clipPath><clipPath id="19ee07c064"><rect x="0" width="873" y="0" height="573"/></clipPath><clipPath id="9aa57fa410"><rect x="0" width="1655" y="0" height="1655"/></clipPath></defs><g transform="matrix(1, 0, 0, 1, 285, 342)"><g clip-path="url(#9aa57fa410)"><g clip-path="url(#f04ea9e487)"><path fill="#ffffff" d="M 826.960938 0.707031 C 370.539062 0.707031 0.046875 371.199219 0.046875 827.621094 C 0.046875 1284.039062 370.539062 1654.53125 826.960938 1654.53125 C 1283.378906 1654.53125 1653.871094 1284.039062 1653.871094 827.621094 C 1653.871094 371.199219 1283.378906 0.707031 826.960938 0.707031 Z M 826.960938 46.644531 C 1258.550781 46.644531 1607.933594 396.027344 1607.933594 827.621094 C 1607.933594 1259.210938 1258.550781 1608.59375 826.960938 1608.59375 C 395.367188 1608.59375 45.988281 1259.210938 45.988281 827.621094 C 45.988281 396.027344 395.367188 46.644531 826.960938 46.644531 Z M 826.960938 46.644531 " fill-opacity="1" fill-rule="nonzero"/></g><g transform="matrix(1, 0, 0, 1, 553, 824)"><g clip-path="url(#19ee07c064)"><g fill="#e6007e" fill-opacity="1"><g transform="translate(5.787281, 453.073618)"><g><path d="M 53.125 1.828125 C 38.882812 1.828125 28.421875 -1.816406 21.734375 -9.109375 C 15.054688 -16.398438 11.71875 -26.90625 11.71875 -40.625 L 11.71875 -140.875 L 37.75 -140.875 L 37.75 -38.796875 C 37.75 -32.378906 39.09375 -27.738281 41.78125 -24.875 C 44.476562 -22.007812 48.257812 -20.578125 53.125 -20.578125 C 57.976562 -20.578125 61.75 -22.007812 64.4375 -24.875 C 67.132812 -27.738281 68.484375 -32.378906 68.484375 -38.796875 L 68.484375 -118.734375 C 68.484375 -128.628906 67.570312 -137.265625 65.75 -144.640625 C 63.925781 -152.023438 60.238281 -159.882812 54.6875 -168.21875 L 30.46875 -202.84375 C 25.78125 -209.613281 22.046875 -216.164062 19.265625 -222.5 C 16.492188 -228.84375 14.539062 -235.742188 13.40625 -243.203125 C 12.28125 -250.671875 11.71875 -259.351562 11.71875 -269.25 L 11.71875 -339.8125 C 11.71875 -353.53125 15.054688 -363.988281 21.734375 -371.1875 C 28.421875 -378.394531 38.882812 -382 53.125 -382 C 67.1875 -382 77.601562 -378.394531 84.375 -371.1875 C 91.144531 -363.988281 94.53125 -353.53125 94.53125 -339.8125 L 94.53125 -247.375 L 68.484375 -247.375 L 68.484375 -341.640625 C 68.484375 -347.890625 67.132812 -352.445312 64.4375 -355.3125 C 61.75 -358.175781 57.976562 -359.609375 53.125 -359.609375 C 48.257812 -359.609375 44.476562 -358.175781 41.78125 -355.3125 C 39.09375 -352.445312 37.75 -347.890625 37.75 -341.640625 L 37.75 -269.25 C 37.75 -261.613281 38.226562 -254.972656 39.1875 -249.328125 C 40.144531 -243.691406 41.617188 -238.570312 43.609375 -233.96875 C 45.609375 -229.363281 48.257812 -224.632812 51.5625 -219.78125 L 75.78125 -185.140625 C 80.46875 -178.546875 84.15625 -172.125 86.84375 -165.875 C 89.53125 -159.625 91.484375 -152.804688 92.703125 -145.421875 C 93.921875 -138.046875 94.53125 -129.148438 94.53125 -118.734375 L 94.53125 -40.625 C 94.53125 -26.90625 91.144531 -16.398438 84.375 -9.109375 C 77.601562 -1.816406 67.1875 1.828125 53.125 1.828125 Z M 53.125 1.828125 "/></g></g></g><g fill="#e6007e" fill-opacity="1"><g transform="translate(112.015805, 453.073618)"><g><path d="M 53.90625 1.828125 C 39.5 1.828125 28.863281 -1.816406 22 -9.109375 C 15.144531 -16.398438 11.71875 -26.90625 11.71875 -40.625 L 11.71875 -339.8125 C 11.71875 -353.53125 15.144531 -363.988281 22 -371.1875 C 28.863281 -378.394531 39.5 -382 53.90625 -382 C 68.132812 -382 78.675781 -378.394531 85.53125 -371.1875 C 92.394531 -363.988281 95.828125 -353.53125 95.828125 -339.8125 L 95.828125 -40.625 C 95.828125 -26.90625 92.394531 -16.398438 85.53125 -9.109375 C 78.675781 -1.816406 68.132812 1.828125 53.90625 1.828125 Z M 37.75 -38.796875 C 37.75 -32.378906 39.140625 -27.738281 41.921875 -24.875 C 44.703125 -22.007812 48.695312 -20.578125 53.90625 -20.578125 C 58.9375 -20.578125 62.796875 -22.007812 65.484375 -24.875 C 68.179688 -27.738281 69.53125 -32.378906 69.53125 -38.796875 L 69.53125 -341.640625 C 69.53125 -347.890625 68.179688 -352.445312 65.484375 -355.3125 C 62.796875 -358.175781 58.9375 -359.609375 53.90625 -359.609375 C 43.132812 -359.609375 37.75 -353.617188 37.75 -341.640625 Z M 37.75 -38.796875 "/></g></g></g><g fill="#e6007e" fill-opacity="1"><g transform="translate(219.546053, 453.073618)"><g><path d="M 11.71875 0 L 11.71875 -380.1875 L 37.75 -380.1875 L 37.75 -23.4375 L 69 -23.4375 L 69 0 Z M 11.71875 0 "/></g></g></g><g fill="#e6007e" fill-opacity="1"><g transform="translate(292.187551, 453.073618)"><g><path d="M 53.90625 1.828125 C 39.5 1.828125 28.863281 -1.816406 22 -9.109375 C 15.144531 -16.398438 11.71875 -26.90625 11.71875 -40.625 L 11.71875 -380.1875 L 37.75 -380.1875 L 37.75 -38.796875 C 37.75 -32.378906 39.140625 -27.738281 41.921875 -24.875 C 44.703125 -22.007812 48.695312 -20.578125 53.90625 -20.578125 C 58.9375 -20.578125 62.835938 -22.007812 65.609375 -24.875 C 68.390625 -27.738281 69.78125 -32.378906 69.78125 -38.796875 L 69.78125 -380.1875 L 95.828125 -380.1875 L 95.828125 -40.625 C 95.828125 -26.90625 92.394531 -16.398438 85.53125 -9.109375 C 78.675781 -1.816406 68.132812 1.828125 53.90625 1.828125 Z M 53.90625 1.828125 "/></g></g></g><g fill="#e6007e" fill-opacity="1"><g transform="translate(399.717799, 453.073618)"><g><path d="M 29.421875 0 L 29.421875 -356.75 L 3.390625 -356.75 L 3.390625 -380.1875 L 80.984375 -380.1875 L 80.984375 -356.75 L 55.71875 -356.75 L 55.71875 0 Z M 29.421875 0 "/></g></g></g><g fill="#e6007e" fill-opacity="1"><g transform="translate(484.07573, 453.073618)"><g><path d="M 11.71875 0 L 11.71875 -380.1875 L 37.75 -380.1875 L 37.75 0 Z M 11.71875 0 "/></g></g></g><g fill="#e6007e" fill-opacity="1"><g transform="translate(533.54491, 453.073618)"><g><path d="M 53.90625 1.828125 C 39.5 1.828125 28.863281 -1.816406 22 -9.109375 C 15.144531 -16.398438 11.71875 -26.90625 11.71875 -40.625 L 11.71875 -339.8125 C 11.71875 -353.53125 15.144531 -363.988281 22 -371.1875 C 28.863281 -378.394531 39.5 -382 53.90625 -382 C 68.132812 -382 78.675781 -378.394531 85.53125 -371.1875 C 92.394531 -363.988281 95.828125 -353.53125 95.828125 -339.8125 L 95.828125 -40.625 C 95.828125 -26.90625 92.394531 -16.398438 85.53125 -9.109375 C 78.675781 -1.816406 68.132812 1.828125 53.90625 1.828125 Z M 37.75 -38.796875 C 37.75 -32.378906 39.140625 -27.738281 41.921875 -24.875 C 44.703125 -22.007812 48.695312 -20.578125 53.90625 -20.578125 C 58.9375 -20.578125 62.796875 -22.007812 65.484375 -24.875 C 68.179688 -27.738281 69.53125 -32.378906 69.53125 -38.796875 L 69.53125 -341.640625 C 69.53125 -347.890625 68.179688 -352.445312 65.484375 -355.3125 C 62.796875 -358.175781 58.9375 -359.609375 53.90625 -359.609375 C 43.132812 -359.609375 37.75 -353.617188 37.75 -341.640625 Z M 37.75 -38.796875 "/></g></g></g><g fill="#e6007e" fill-opacity="1"><g transform="translate(641.075158, 453.073618)"><g><path d="M 11.71875 0 L 11.71875 -380.1875 L 54.15625 -380.1875 L 76.03125 -142.953125 L 87.234375 -22.921875 L 88.53125 -22.921875 L 87.5 -142.953125 L 86.96875 -380.1875 L 109.890625 -380.1875 L 109.890625 0 L 67.4375 0 L 45.5625 -237.21875 L 34.640625 -357.265625 L 33.078125 -357.265625 L 34.109375 -237.21875 L 34.640625 0 Z M 11.71875 0 "/></g></g></g><g fill="#e6007e" fill-opacity="1"><g transform="translate(762.665148, 453.073618)"><g><path d="M 53.125 1.828125 C 38.882812 1.828125 28.421875 -1.816406 21.734375 -9.109375 C 15.054688 -16.398438 11.71875 -26.90625 11.71875 -40.625 L 11.71875 -140.875 L 37.75 -140.875 L 37.75 -38.796875 C 37.75 -32.378906 39.09375 -27.738281 41.78125 -24.875 C 44.476562 -22.007812 48.257812 -20.578125 53.125 -20.578125 C 57.976562 -20.578125 61.75 -22.007812 64.4375 -24.875 C 67.132812 -27.738281 68.484375 -32.378906 68.484375 -38.796875 L 68.484375 -118.734375 C 68.484375 -128.628906 67.570312 -137.265625 65.75 -144.640625 C 63.925781 -152.023438 60.238281 -159.882812 54.6875 -168.21875 L 30.46875 -202.84375 C 25.78125 -209.613281 22.046875 -216.164062 19.265625 -222.5 C 16.492188 -228.84375 14.539062 -235.742188 13.40625 -243.203125 C 12.28125 -250.671875 11.71875 -259.351562 11.71875 -269.25 L 11.71875 -339.8125 C 11.71875 -353.53125 15.054688 -363.988281 21.734375 -371.1875 C 28.421875 -378.394531 38.882812 -382 53.125 -382 C 67.1875 -382 77.601562 -378.394531 84.375 -371.1875 C 91.144531 -363.988281 94.53125 -353.53125 94.53125 -339.8125 L 94.53125 -247.375 L 68.484375 -247.375 L 68.484375 -341.640625 C 68.484375 -347.890625 67.132812 -352.445312 64.4375 -355.3125 C 61.75 -358.175781 57.976562 -359.609375 53.125 -359.609375 C 48.257812 -359.609375 44.476562 -358.175781 41.78125 -355.3125 C 39.09375 -352.445312 37.75 -347.890625 37.75 -341.640625 L 37.75 -269.25 C 37.75 -261.613281 38.226562 -254.972656 39.1875 -249.328125 C 40.144531 -243.691406 41.617188 -238.570312 43.609375 -233.96875 C 45.609375 -229.363281 48.257812 -224.632812 51.5625 -219.78125 L 75.78125 -185.140625 C 80.46875 -178.546875 84.15625 -172.125 86.84375 -165.875 C 89.53125 -159.625 91.484375 -152.804688 92.703125 -145.421875 C 93.921875 -138.046875 94.53125 -129.148438 94.53125 -118.734375 L 94.53125 -40.625 C 94.53125 -26.90625 91.144531 -16.398438 84.375 -9.109375 C 77.601562 -1.816406 67.1875 1.828125 53.125 1.828125 Z M 53.125 1.828125 "/></g></g></g></g></g><path fill="#ffffff" d="M 169.789062 557.386719 L 205.871094 557.386719 L 205.871094 576.167969 C 212.789062 561.339844 225.144531 554.914062 240.960938 554.914062 C 256.777344 554.914062 270.617188 561.835938 276.546875 578.144531 C 283.960938 562.328125 297.308594 554.914062 315.101562 554.914062 C 332.894531 554.914062 354.640625 569.25 354.640625 603.847656 L 354.640625 868.273438 L 317.570312 868.273438 L 317.570312 606.8125 C 317.570312 592.476562 312.136719 586.546875 299.777344 586.546875 C 287.421875 586.546875 285.445312 589.511719 280.007812 595.445312 C 280.007812 597.914062 280.007812 600.878906 280.007812 603.847656 L 280.007812 868.273438 L 242.9375 868.273438 L 242.9375 606.8125 C 242.9375 592.476562 237.503906 586.546875 225.144531 586.546875 C 212.789062 586.546875 211.304688 589.019531 205.871094 594.949219 L 205.871094 868.273438 L 168.800781 868.273438 L 168.800781 557.386719 Z M 169.789062 557.386719 " fill-opacity="1" fill-rule="nonzero"/><path fill="#ffffff" d="M 550.859375 809.457031 L 550.859375 594.457031 C 550.859375 562.824219 563.710938 544.042969 591.390625 544.042969 C 619.070312 544.042969 619.070312 550.464844 625.988281 564.800781 L 625.988281 483.742188 L 663.058594 483.742188 L 663.058594 856.90625 L 627.964844 856.90625 L 627.964844 835.652344 C 621.046875 852.457031 608.6875 859.871094 591.882812 859.871094 C 564.207031 859.871094 551.355469 841.089844 551.355469 809.457031 Z M 606.21875 828.238281 C 614.621094 828.238281 620.550781 825.273438 626.484375 819.34375 L 626.484375 585.558594 C 621.046875 579.628906 614.621094 576.660156 606.21875 576.660156 C 593.863281 576.660156 587.929688 582.59375 587.929688 597.914062 L 587.929688 807.480469 C 587.929688 822.800781 593.863281 828.734375 606.21875 828.734375 Z M 606.21875 828.238281 " fill-opacity="1" fill-rule="nonzero"/><path fill="#ffffff" d="M 693.207031 484.234375 L 730.277344 484.234375 L 730.277344 529.214844 L 693.207031 529.214844 Z M 693.703125 546.511719 L 730.769531 546.511719 L 730.769531 857.398438 L 693.703125 857.398438 Z M 693.703125 546.511719 " fill-opacity="1" fill-rule="nonzero"/><path fill="#ffffff" d="M 835.554688 830.710938 C 830.609375 848.503906 816.773438 860.367188 797.988281 860.367188 C 769.816406 860.367188 757.953125 843.5625 757.953125 813.90625 L 757.953125 752.125 C 757.953125 721.480469 765.863281 705.167969 792.554688 687.375 L 833.082031 660.6875 L 833.082031 596.433594 C 833.082031 581.109375 826.164062 575.671875 814.300781 575.671875 C 802.4375 575.671875 795.519531 581.109375 795.519531 596.433594 L 795.519531 650.304688 L 758.449219 650.304688 L 758.449219 596.433594 C 758.449219 562.328125 779.703125 544.535156 814.300781 544.535156 C 848.898438 544.535156 869.65625 562.328125 869.65625 596.433594 L 869.65625 777.332031 C 869.65625 807.972656 870.644531 833.183594 875.09375 857.894531 L 839.507812 857.894531 C 837.53125 848.996094 836.046875 840.101562 835.058594 831.203125 Z M 811.828125 828.734375 C 822.207031 828.734375 829.128906 824.285156 834.070312 815.386719 C 833.082031 803.527344 833.082031 790.675781 833.082031 776.835938 L 833.082031 696.765625 L 813.3125 710.113281 C 799.96875 719.503906 794.53125 727.90625 794.53125 747.179688 L 794.53125 808.964844 C 794.53125 822.800781 800.460938 828.734375 811.828125 828.734375 Z M 811.828125 828.734375 " fill-opacity="1" fill-rule="nonzero"/><path fill="#e6007e" d="M 1303.613281 463.476562 L 1303.613281 532.671875 L 1276.925781 532.671875 L 1276.925781 463.476562 L 1226.015625 463.476562 L 1226.015625 605.824219 L 1284.832031 605.824219 L 1284.832031 611.261719 C 1284.832031 667.605469 1265.558594 718.515625 1218.109375 718.515625 L 1218.109375 779.308594 C 1311.523438 779.308594 1356.007812 697.261719 1356.007812 604.835938 L 1356.007812 463.476562 L 1303.121094 463.476562 Z M 1303.613281 463.476562 " fill-opacity="1" fill-rule="nonzero"/><path fill="#ffffff" d="M 916.117188 803.03125 L 916.117188 588.03125 C 916.117188 556.398438 928.96875 537.617188 956.644531 537.617188 C 984.324219 537.617188 984.324219 544.042969 991.246094 558.375 L 991.246094 477.316406 L 1028.3125 477.316406 L 1028.3125 850.480469 L 993.222656 850.480469 L 993.222656 828.734375 C 986.300781 845.539062 973.945312 852.953125 957.140625 852.953125 C 929.460938 852.953125 916.613281 834.171875 916.613281 802.539062 Z M 971.472656 821.320312 C 979.875 821.320312 985.808594 818.355469 991.738281 812.421875 L 991.738281 578.640625 C 986.300781 572.707031 979.875 569.742188 971.472656 569.742188 C 959.117188 569.742188 953.1875 575.671875 953.1875 590.996094 L 953.1875 800.5625 C 953.1875 815.882812 959.117188 821.8125 971.472656 821.8125 Z M 971.472656 821.320312 " fill-opacity="1" fill-rule="nonzero"/><path fill="#ffffff" d="M 1148.417969 823.789062 C 1143.476562 841.585938 1129.636719 853.445312 1110.855469 853.445312 C 1082.683594 853.445312 1070.820312 836.640625 1070.820312 806.984375 L 1070.820312 745.203125 C 1070.820312 714.558594 1078.234375 698.25 1105.417969 680.457031 L 1145.945312 653.765625 L 1145.945312 589.511719 C 1145.945312 574.191406 1139.027344 568.753906 1127.164062 568.753906 C 1115.304688 568.753906 1108.382812 574.191406 1108.382812 589.511719 L 1108.382812 643.386719 L 1071.3125 643.386719 L 1071.3125 589.511719 C 1071.3125 555.410156 1092.566406 537.617188 1127.164062 537.617188 C 1161.761719 537.617188 1182.523438 555.410156 1182.523438 589.511719 L 1182.523438 770.410156 C 1182.523438 801.054688 1183.511719 826.261719 1187.957031 850.976562 L 1152.371094 850.976562 C 1150.394531 842.078125 1148.914062 833.183594 1147.925781 824.285156 Z M 1124.695312 822.308594 C 1135.074219 822.308594 1141.992188 817.859375 1146.933594 808.964844 C 1145.945312 797.101562 1145.945312 784.25 1145.945312 770.410156 L 1145.945312 690.339844 L 1126.175781 703.6875 C 1112.832031 713.078125 1107.394531 721.480469 1107.394531 740.261719 L 1107.394531 802.042969 C 1107.394531 815.882812 1113.324219 821.8125 1124.695312 821.8125 Z M 1124.695312 822.308594 " fill-opacity="1" fill-rule="nonzero"/><path fill="#ffffff" d="M 1376.765625 800.066406 L 1376.765625 739.273438 L 1413.835938 739.273438 L 1413.835938 800.066406 C 1413.835938 816.375 1420.257812 822.308594 1432.121094 822.308594 C 1443.984375 822.308594 1450.902344 816.375 1450.902344 800.066406 L 1450.902344 760.03125 C 1450.902344 737.789062 1446.457031 728.894531 1431.132812 715.054688 L 1407.902344 695.285156 C 1387.144531 677.492188 1376.765625 657.71875 1376.765625 623.121094 L 1376.765625 590.5 C 1376.765625 555.410156 1397.523438 537.617188 1432.121094 537.617188 C 1466.71875 537.617188 1486.984375 555.410156 1486.984375 590.5 L 1486.984375 644.871094 L 1450.902344 644.871094 L 1450.902344 590.5 C 1450.902344 574.683594 1443.984375 568.753906 1432.121094 568.753906 C 1420.261719 568.753906 1413.835938 574.683594 1413.835938 590.5 L 1413.835938 623.121094 C 1413.835938 643.386719 1417.789062 654.261719 1433.109375 667.605469 L 1456.339844 687.375 C 1476.605469 704.675781 1487.480469 722.46875 1487.480469 760.03125 L 1487.480469 800.066406 C 1487.480469 835.160156 1467.214844 853.445312 1432.617188 853.445312 C 1398.019531 853.445312 1377.257812 835.652344 1377.257812 800.066406 Z M 1376.765625 800.066406 " fill-opacity="1" fill-rule="nonzero"/><path fill="#e6007e" d="M 454.480469 779.308594 L 454.480469 773.871094 L 513.296875 773.871094 L 513.296875 631.523438 L 383.308594 631.523438 L 383.308594 772.882812 C 383.308594 865.308594 428.285156 947.355469 521.207031 947.355469 L 521.207031 886.5625 C 473.757812 886.5625 454.480469 835.652344 454.480469 779.308594 Z M 434.214844 693.308594 L 461.894531 693.308594 L 461.894531 720.984375 L 434.214844 720.984375 Z M 434.214844 693.308594 " fill-opacity="1" fill-rule="nonzero"/></g></g></svg>