<svg xmlns="http://www.w3.org/2000/svg" xmlns:xlink="http://www.w3.org/1999/xlink" width="3000" zoomAndPan="magnify" viewBox="0 0 2250 2250.000011" height="3000" preserveAspectRatio="xMidYMid meet" version="1.0"><defs><clipPath id="7faac7da46"><path d="M 841.867188 296 L 2060.582031 296 L 2060.582031 1845 L 841.867188 1845 Z M 841.867188 296 " clip-rule="nonzero"/></clipPath><clipPath id="e346cbf8ba"><rect x="0" width="2077" y="0" height="2184"/></clipPath></defs><g transform="matrix(1, 0, 0, 1, 23, 65)"><g clip-path="url(#e346cbf8ba)"><path fill="#e6007e" d="M 924.351562 895.089844 L 924.351562 656.203125 L 1004.195312 656.203125 C 1033.992188 656.203125 1057.605469 663.769531 1075.015625 678.902344 C 1092.421875 694.035156 1101.125 714.679688 1101.125 740.84375 C 1101.125 767.003906 1092.421875 787.601562 1075.015625 802.609375 C 1057.605469 817.621094 1034.015625 825.136719 1004.195312 825.136719 L 984.734375 825.136719 L 984.734375 895.089844 L 924.328125 895.089844 Z M 1038.664062 740.84375 C 1038.664062 729.023438 1035.648438 720.492188 1029.613281 715.25 C 1023.582031 710.007812 1014.65625 707.410156 1002.835938 707.410156 L 984.757812 707.410156 L 984.757812 773.953125 L 1002.835938 773.953125 C 1014.65625 773.953125 1023.582031 771.332031 1029.613281 766.113281 C 1035.648438 760.871094 1038.664062 752.464844 1038.664062 740.867188 Z M 1038.664062 740.84375 " fill-opacity="1" fill-rule="nonzero"/><path fill="#e6007e" d="M 1257.773438 895.089844 L 1246.84375 851.078125 L 1169.027344 851.078125 L 1158.097656 895.089844 L 1095.984375 895.089844 C 1106.664062 853.699219 1119.425781 810.574219 1134.210938 765.769531 C 1148.996094 720.9375 1163.09375 684.441406 1176.519531 656.226562 L 1239.300781 656.226562 C 1252.726562 684.664062 1266.945312 721.359375 1281.957031 766.285156 C 1296.964844 811.214844 1309.699219 854.167969 1320.183594 895.117188 L 1257.722656 895.117188 Z M 1207.949219 720.714844 C 1201.34375 735.054688 1192.816406 761.441406 1182.355469 799.890625 L 1233.539062 799.890625 C 1223.082031 761.441406 1214.550781 735.054688 1207.949219 720.714844 Z M 1207.949219 720.714844 " fill-opacity="1" fill-rule="nonzero"/><path fill="#e6007e" d="M 1531.777344 895.089844 L 1467.632812 895.089844 L 1439.640625 828.894531 C 1435.09375 817.746094 1426.5625 812.179688 1414.050781 812.179688 L 1404.824219 812.179688 L 1404.824219 895.117188 L 1344.070312 895.117188 L 1344.070312 656.226562 L 1420.503906 656.226562 C 1450.300781 656.226562 1473.742188 662.703125 1490.800781 675.6875 C 1507.863281 688.644531 1516.394531 706.398438 1516.394531 728.925781 C 1516.394531 745.539062 1512.984375 758.941406 1506.15625 769.203125 C 1499.332031 779.441406 1488.75 787.28125 1474.40625 792.746094 C 1485.78125 797.292969 1495.007812 807.976562 1502.054688 824.816406 L 1531.75 895.117188 Z M 1417.808594 707.410156 L 1404.851562 707.410156 L 1404.851562 761.316406 L 1417.808594 761.316406 C 1442.140625 761.316406 1454.328125 752.339844 1454.328125 734.363281 C 1454.328125 724.351562 1451.261719 717.351562 1445.105469 713.371094 C 1438.972656 709.390625 1429.851562 707.386719 1417.808594 707.386719 Z M 1417.808594 707.410156 " fill-opacity="1" fill-rule="nonzero"/><path fill="#e6007e" d="M 1558.40625 895.089844 L 1558.40625 656.203125 L 1618.816406 656.203125 L 1618.816406 895.089844 Z M 1558.40625 895.089844 " fill-opacity="1" fill-rule="nonzero"/><path fill="#e6007e" d="M 1649.5 884.855469 L 1660.429688 834.015625 C 1669.308594 837.648438 1679.25 840.714844 1690.300781 843.238281 C 1701.332031 845.734375 1711.960938 846.996094 1722.199219 846.996094 C 1732.4375 846.996094 1740.449219 845.242188 1745.566406 841.703125 C 1750.6875 838.167969 1753.257812 833.347656 1753.257812 827.191406 C 1753.257812 821.503906 1751.601562 816.902344 1748.3125 813.367188 C 1745 809.855469 1740.398438 806.890625 1734.488281 804.492188 C 1728.578125 802.09375 1721.753906 799.546875 1714.015625 796.824219 C 1690.351562 788.640625 1673.734375 778.675781 1664.191406 766.953125 C 1654.644531 755.234375 1649.847656 740.964844 1649.847656 724.128906 C 1649.847656 701.378906 1657.191406 683.699219 1671.855469 671.0625 C 1686.542969 658.425781 1707.511719 652.121094 1734.8125 652.121094 C 1744.578125 652.121094 1755.679688 653.136719 1768.070312 655.1875 C 1780.457031 657.238281 1791.78125 660.652344 1802.019531 665.425781 L 1790.421875 715.25 C 1772.890625 707.980469 1755.507812 704.320312 1738.199219 704.320312 C 1720 704.320312 1710.898438 710.230469 1710.898438 722.074219 C 1710.898438 727.09375 1712.480469 731.472656 1715.671875 735.203125 C 1718.863281 738.964844 1728.183594 743.6875 1743.664062 749.375 C 1764.359375 756.890625 1779.371094 764.285156 1788.714844 771.554688 C 1798.039062 778.847656 1804.640625 787.082031 1808.496094 796.304688 C 1812.355469 805.527344 1814.308594 815.691406 1814.308594 826.84375 C 1814.308594 849.371094 1806.296875 867.050781 1790.25 879.910156 C 1774.203125 892.765625 1752.417969 899.195312 1724.894531 899.195312 C 1714.433594 899.195312 1702.144531 898.109375 1688.050781 895.957031 C 1673.933594 893.804688 1661.097656 890.097656 1649.5 884.855469 Z M 1649.5 884.855469 " fill-opacity="1" fill-rule="nonzero"/><path fill="#ffffff" d="M 1093.113281 1151.910156 L 1035.425781 1151.910156 L 1010.253906 1092.390625 C 1006.148438 1082.375 998.484375 1077.355469 987.230469 1077.355469 L 978.949219 1077.355469 L 978.949219 1151.910156 L 924.328125 1151.910156 L 924.328125 937.128906 L 993.066406 937.128906 C 1019.871094 937.128906 1040.941406 942.964844 1056.269531 954.609375 C 1071.601562 966.257812 1079.292969 982.230469 1079.292969 1002.480469 C 1079.292969 1017.417969 1076.226562 1029.484375 1070.09375 1038.683594 C 1063.960938 1047.878906 1054.441406 1054.953125 1041.558594 1059.847656 C 1051.796875 1063.953125 1060.078125 1073.546875 1066.410156 1088.679688 L 1093.113281 1151.882812 Z M 990.644531 983.144531 L 978.972656 983.144531 L 978.972656 1031.636719 L 990.644531 1031.636719 C 1012.527344 1031.636719 1023.480469 1023.550781 1023.480469 1007.402344 C 1023.480469 998.402344 1020.714844 992.121094 1015.199219 988.535156 C 1009.683594 984.949219 1001.5 983.167969 990.644531 983.167969 Z M 990.644531 983.144531 " fill-opacity="1" fill-rule="nonzero"/><path fill="#ffffff" d="M 1247.140625 1151.910156 L 1237.324219 1112.320312 L 1167.371094 1112.320312 L 1157.554688 1151.910156 L 1101.71875 1151.910156 C 1111.339844 1114.667969 1122.785156 1075.921875 1136.089844 1035.617188 C 1149.394531 995.3125 1162.078125 962.496094 1174.144531 937.128906 L 1230.597656 937.128906 C 1242.664062 962.695312 1255.449219 995.679688 1268.949219 1036.085938 C 1282.449219 1076.488281 1293.898438 1115.089844 1303.320312 1151.910156 Z M 1202.359375 995.113281 C 1196.425781 1007.996094 1188.757812 1031.734375 1179.339844 1066.300781 L 1225.355469 1066.300781 C 1215.933594 1031.734375 1208.269531 1007.996094 1202.335938 995.113281 Z M 1202.359375 995.113281 " fill-opacity="1" fill-rule="nonzero"/><path fill="#ffffff" d="M 1324.785156 1151.910156 L 1324.785156 937.128906 L 1402.105469 937.128906 C 1417.660156 937.128906 1432.027344 939.527344 1445.230469 944.347656 C 1458.433594 949.144531 1469.882812 956.167969 1479.601562 965.367188 C 1489.320312 974.566406 1496.785156 985.863281 1502.003906 999.265625 C 1507.222656 1012.667969 1509.816406 1027.457031 1509.816406 1043.601562 C 1509.816406 1059.75 1507.222656 1075.253906 1502.003906 1088.855469 C 1496.785156 1102.453125 1489.320312 1113.925781 1479.601562 1123.226562 C 1469.882812 1132.546875 1458.433594 1139.644531 1445.230469 1144.539062 C 1432.027344 1149.460938 1417.660156 1151.910156 1402.105469 1151.910156 Z M 1453.636719 1043.601562 C 1453.636719 1022.957031 1449.234375 1007.699219 1440.433594 997.882812 C 1431.628906 988.066406 1418.351562 983.144531 1400.546875 983.144531 L 1379.058594 983.144531 L 1379.058594 1105.890625 L 1400.546875 1105.890625 C 1418.351562 1105.890625 1431.628906 1100.820312 1440.433594 1090.707031 C 1449.234375 1080.59375 1453.636719 1064.894531 1453.636719 1043.601562 Z M 1453.636719 1043.601562 " fill-opacity="1" fill-rule="nonzero"/><path fill="#ffffff" d="M 1537.414062 937.128906 L 1591.714844 937.128906 L 1591.714844 1151.910156 L 1537.414062 1151.910156 Z M 1537.414062 937.128906 " fill-opacity="1" fill-rule="nonzero"/><path fill="#ffffff" d="M 1821.234375 1044.519531 C 1821.234375 1060.886719 1818.933594 1075.972656 1814.332031 1089.769531 C 1809.734375 1103.566406 1803.035156 1115.335938 1794.230469 1125.054688 C 1785.425781 1134.773438 1774.792969 1142.289062 1762.308594 1147.605469 C 1749.820312 1152.921875 1736.121094 1155.59375 1721.1875 1155.59375 C 1706.25 1155.59375 1692.230469 1152.921875 1679.769531 1147.605469 C 1667.28125 1142.289062 1656.648438 1134.773438 1647.84375 1125.054688 C 1639.042969 1115.335938 1632.339844 1103.566406 1627.742188 1089.769531 C 1623.144531 1075.972656 1620.84375 1060.886719 1620.84375 1044.519531 C 1620.84375 1028.148438 1623.144531 1013.066406 1627.742188 999.265625 C 1632.339844 985.46875 1639.042969 973.699219 1647.84375 963.980469 C 1656.648438 954.261719 1667.28125 946.746094 1679.769531 941.429688 C 1692.253906 936.113281 1706.054688 933.441406 1721.1875 933.441406 C 1736.320312 933.441406 1749.820312 936.113281 1762.308594 941.429688 C 1774.792969 946.746094 1785.425781 954.261719 1794.230469 963.980469 C 1803.035156 973.699219 1809.734375 985.46875 1814.332031 999.265625 C 1818.933594 1013.066406 1821.234375 1028.171875 1821.234375 1044.519531 Z M 1677.023438 1044.519531 C 1677.023438 1064.769531 1680.855469 1080.371094 1688.519531 1091.300781 C 1696.1875 1102.257812 1707.089844 1107.71875 1721.210938 1107.71875 C 1735.328125 1107.71875 1746.160156 1102.257812 1753.726562 1091.300781 C 1761.292969 1080.371094 1765.078125 1064.769531 1765.078125 1044.519531 C 1765.078125 1024.265625 1761.292969 1008.664062 1753.726562 997.734375 C 1746.160156 986.804688 1735.304688 981.316406 1721.210938 981.316406 C 1707.117188 981.316406 1696.210938 986.78125 1688.519531 997.734375 C 1680.855469 1008.6875 1677.023438 1024.265625 1677.023438 1044.519531 Z M 1677.023438 1044.519531 " fill-opacity="1" fill-rule="nonzero"/><path fill="#ffffff" d="M 924.351562 1411.617188 L 934.167969 1365.871094 C 942.15625 1369.136719 951.105469 1371.90625 961.019531 1374.15625 C 970.9375 1376.40625 980.507812 1377.542969 989.730469 1377.542969 C 998.953125 1377.542969 1006.148438 1375.960938 1010.746094 1372.796875 C 1015.347656 1369.632812 1017.648438 1365.28125 1017.648438 1359.742188 C 1017.648438 1354.621094 1016.164062 1350.492188 1013.195312 1347.300781 C 1010.230469 1344.136719 1006.074219 1341.46875 1000.757812 1339.316406 C 995.441406 1337.164062 989.285156 1334.863281 982.335938 1332.417969 C 961.046875 1325.046875 946.109375 1316.097656 937.503906 1305.5625 C 928.902344 1295.03125 924.621094 1282.171875 924.621094 1267.039062 C 924.621094 1246.5625 931.226562 1230.664062 944.429688 1219.289062 C 957.632812 1207.941406 976.5 1202.253906 1001.078125 1202.253906 C 1009.882812 1202.253906 1019.847656 1203.167969 1031 1205.023438 C 1042.152344 1206.851562 1052.339844 1209.941406 1061.539062 1214.246094 L 1051.101562 1259.074219 C 1035.351562 1252.523438 1019.675781 1249.257812 1004.121094 1249.257812 C 987.75 1249.257812 979.566406 1254.574219 979.566406 1265.234375 C 979.566406 1269.734375 981 1273.664062 983.871094 1277.050781 C 986.738281 1280.441406 995.121094 1284.695312 1009.042969 1289.789062 C 1027.660156 1296.539062 1041.164062 1303.1875 1049.570312 1309.742188 C 1057.953125 1316.292969 1063.886719 1323.714844 1067.375 1331.996094 C 1070.859375 1340.28125 1072.589844 1349.453125 1072.589844 1359.46875 C 1072.589844 1379.71875 1065.371094 1395.644531 1050.953125 1407.21875 C 1036.511719 1418.789062 1016.929688 1424.550781 992.152344 1424.550781 C 982.730469 1424.550781 971.679688 1423.585938 958.992188 1421.632812 C 946.308594 1419.679688 934.734375 1416.367188 924.300781 1411.644531 Z M 924.351562 1411.617188 " fill-opacity="1" fill-rule="nonzero"/><path fill="#ffffff" d="M 1276.492188 1420.816406 L 1222.164062 1420.816406 L 1222.164062 1335.160156 L 1151.542969 1335.160156 L 1151.542969 1420.816406 L 1097.21875 1420.816406 L 1097.21875 1205.914062 L 1151.542969 1205.914062 L 1151.542969 1289.121094 L 1222.164062 1289.121094 L 1222.164062 1205.914062 L 1276.492188 1205.914062 Z M 1276.492188 1420.816406 " fill-opacity="1" fill-rule="nonzero"/><path fill="#ffffff" d="M 1506.109375 1313.378906 C 1506.109375 1329.746094 1503.808594 1344.855469 1499.210938 1358.652344 C 1494.609375 1372.476562 1487.910156 1384.246094 1479.105469 1393.964844 C 1470.304688 1403.679688 1459.671875 1411.199219 1447.183594 1416.515625 C 1434.695312 1421.832031 1420.972656 1424.5 1406.039062 1424.5 C 1391.101562 1424.5 1377.082031 1421.832031 1364.59375 1416.515625 C 1352.109375 1411.199219 1341.476562 1403.679688 1332.671875 1393.964844 C 1323.867188 1384.246094 1317.167969 1372.476562 1312.570312 1358.652344 C 1307.96875 1344.828125 1305.667969 1329.746094 1305.667969 1313.378906 C 1305.667969 1297.007812 1307.96875 1281.898438 1312.570312 1268.101562 C 1317.167969 1254.277344 1323.867188 1242.507812 1332.671875 1232.792969 C 1341.476562 1223.074219 1352.109375 1215.554688 1364.59375 1210.238281 C 1377.082031 1204.921875 1390.90625 1202.253906 1406.039062 1202.253906 C 1421.171875 1202.253906 1434.695312 1204.921875 1447.183594 1210.238281 C 1459.671875 1215.554688 1470.304688 1223.074219 1479.105469 1232.792969 C 1487.910156 1242.507812 1494.609375 1254.277344 1499.210938 1268.101562 C 1503.808594 1281.925781 1506.109375 1297.007812 1506.109375 1313.378906 Z M 1361.824219 1313.378906 C 1361.824219 1333.628906 1365.65625 1349.257812 1373.347656 1360.1875 C 1381.011719 1371.140625 1391.917969 1376.605469 1406.039062 1376.605469 C 1420.15625 1376.605469 1431.011719 1371.140625 1438.578125 1360.1875 C 1446.144531 1349.230469 1449.929688 1333.628906 1449.929688 1313.378906 C 1449.929688 1293.125 1446.144531 1277.496094 1438.578125 1266.570312 C 1431.011719 1255.613281 1420.15625 1250.148438 1406.039062 1250.148438 C 1391.917969 1250.148438 1381.011719 1255.613281 1373.347656 1266.570312 C 1365.683594 1277.523438 1361.824219 1293.125 1361.824219 1313.378906 Z M 1361.824219 1313.378906 " fill-opacity="1" fill-rule="nonzero"/><path fill="#ffffff" d="M 1726.527344 1369.261719 C 1731.84375 1352.472656 1737.777344 1327.867188 1744.332031 1295.425781 C 1750.882812 1262.984375 1755.78125 1233.160156 1759.066406 1205.9375 L 1814.332031 1205.9375 C 1809.214844 1242.164062 1801.550781 1280.6875 1791.3125 1321.511719 C 1781.074219 1362.335938 1770.21875 1395.445312 1758.773438 1420.816406 L 1699.203125 1420.816406 C 1686.914062 1388.277344 1675.464844 1350.515625 1664.808594 1307.542969 C 1654.175781 1350.515625 1642.703125 1388.277344 1630.4375 1420.816406 L 1570.871094 1420.816406 C 1559.816406 1394.628906 1549.011719 1360.804688 1538.476562 1319.359375 C 1527.941406 1277.917969 1520.203125 1240.109375 1515.308594 1205.9375 L 1570.574219 1205.9375 C 1573.835938 1233.160156 1578.757812 1262.984375 1585.308594 1295.425781 C 1591.863281 1327.867188 1597.796875 1352.472656 1603.113281 1369.261719 C 1610.0625 1350.21875 1617.382812 1324.949219 1625.070312 1293.421875 C 1632.738281 1261.917969 1638.128906 1232.742188 1641.195312 1205.9375 L 1688.769531 1205.9375 C 1690.402344 1219.660156 1692.972656 1235.757812 1696.433594 1254.277344 C 1699.921875 1272.800781 1704.421875 1292.753906 1709.933594 1314.144531 C 1715.449219 1335.53125 1720.988281 1353.90625 1726.503906 1369.261719 Z M 1726.527344 1369.261719 " fill-opacity="1" fill-rule="nonzero"/><path fill="#fffffe" d="M 301.238281 1737.480469 L 269.105469 1709.714844 C 373.433594 1588.976562 509.433594 1385.84375 564.984375 1103.640625 C 615.859375 845.109375 577.996094 623.570312 537.300781 483.25 L 578.101562 471.414062 C 620.128906 616.234375 659.214844 844.929688 606.679688 1111.847656 C 549.339844 1403.175781 408.941406 1612.878906 301.265625 1737.503906 Z M 301.238281 1737.480469 " fill-opacity="1" fill-rule="nonzero"/><path fill="#fffffe" d="M 230.582031 1835.414062 C 227.84375 1835.414062 225.035156 1834.878906 222.324219 1833.753906 C 214.269531 1830.402344 209.363281 1822.171875 209.335938 1813.429688 C 209.261719 1793.082031 210.742188 1772.605469 213.734375 1752.535156 C 227 1663.085938 270.664062 1575.9375 339.996094 1500.472656 C 404.75 1430.019531 489.109375 1373.980469 577.511719 1342.691406 C 668.851562 1310.378906 766.609375 1302.835938 868.074219 1320.246094 L 860.890625 1362.121094 C 766.660156 1345.9375 676.113281 1352.867188 591.699219 1382.75 C 509.714844 1411.765625 431.464844 1463.761719 371.3125 1529.234375 C 319.03125 1586.113281 282.707031 1649.921875 264.785156 1715.851562 C 316.679688 1643.351562 401.402344 1557.429688 527.226562 1519.339844 C 573.675781 1505.277344 670.308594 1476.007812 775.710938 1520.082031 C 890.980469 1568.242188 940.933594 1673.03125 958.648438 1722.191406 C 962.839844 1733.824219 956.21875 1746.554688 944.308594 1749.824219 C 933.648438 1752.765625 922.449219 1747.015625 918.742188 1736.582031 C 903.402344 1693.660156 859.816406 1601.246094 759.351562 1559.269531 C 668.035156 1521.101562 584.464844 1546.410156 539.574219 1560.011719 C 368.78125 1611.726562 279.996094 1761.507812 249.753906 1823.5 C 246.148438 1830.914062 238.660156 1835.441406 230.683594 1835.441406 Z M 230.582031 1835.414062 " fill-opacity="1" fill-rule="nonzero"/><path fill="#fffffe" d="M 945.203125 1749.492188 C 935.179688 1755.808594 921.914062 1752.6875 915.726562 1742.566406 C 863.472656 1657.003906 819.171875 1566.941406 783.917969 1474.578125 C 749.355469 1383.976562 689.433594 1194.570312 676.367188 944.019531 C 673.019531 879.75 673.019531 814.714844 676.367188 750.726562 L 718.78125 752.949219 C 715.507812 815.457031 715.507812 879.007812 718.78125 941.820312 C 731.996094 1195.695312 796.496094 1388.398438 823.59375 1459.441406 C 857.925781 1549.402344 901.078125 1637.113281 952 1720.476562 C 958.058594 1730.398438 955.019531 1743.308594 945.175781 1749.492188 Z M 945.203125 1749.492188 " fill-opacity="1" fill-rule="nonzero"/><g clip-path="url(#7faac7da46)"><path fill="#ffffff" d="M 2060.316406 1046.289062 L 2059.445312 1023.921875 C 2048.726562 834.601562 1967.25 656.347656 1833.210938 522.714844 C 1703.808594 393.605469 1532.800781 313.632812 1350.203125 299.203125 L 1335.828125 298.394531 L 1314.097656 297.929688 C 1313.402344 297.929688 1310.449219 297.117188 1311.144531 296.65625 L 1262.582031 296.828125 C 1254.699219 298.449219 1246.238281 297.871094 1237.605469 298.394531 L 1223.40625 299.203125 C 1085.140625 310.15625 953.710938 358.71875 841.867188 437.53125 C 855.425781 444.65625 868.757812 452.132812 881.851562 460.015625 C 925.488281 430.980469 972.371094 406.46875 1021.976562 387.171875 C 1191.1875 321.339844 1380.21875 320.992188 1549.664062 386.359375 C 1740.78125 460.015625 1893.363281 611.203125 1968.753906 801.628906 C 2035.976562 971.246094 2037.136719 1161.203125 1971.941406 1331.691406 C 1897.710938 1525.648438 1743.910156 1680.257812 1549.375 1755.1875 C 1376.972656 1821.597656 1185.394531 1819.859375 1014.847656 1751.480469 C 997.75 1744.640625 981.003906 1737.109375 964.605469 1729.054688 C 952.667969 1738.554688 940.441406 1747.769531 927.921875 1756.578125 C 1023.886719 1806.996094 1130.109375 1837.1875 1240.097656 1843.386719 L 1262.464844 1844.257812 L 1312.535156 1844.257812 C 1312.535156 1844.257812 1333.742188 1843.386719 1333.742188 1843.386719 C 1596.3125 1828.609375 1833.90625 1677.710938 1962.4375 1448.632812 C 2019.75 1346.527344 2054.8125 1233.003906 2059.503906 1116.234375 L 2060.375 1095.027344 L 2060.375 1046.347656 Z M 2060.316406 1046.289062 " fill-opacity="1" fill-rule="nonzero"/></g></g></g></svg>