<svg xmlns="http://www.w3.org/2000/svg" xmlns:xlink="http://www.w3.org/1999/xlink" width="3000" zoomAndPan="magnify" viewBox="0 0 2250 2250.000011" height="3000" preserveAspectRatio="xMidYMid meet" version="1.0"><defs><clipPath id="07f4e1b2dc"><path d="M 0.5 6 L 2155 6 L 2155 2249 L 0.5 2249 Z M 0.5 6 " clip-rule="nonzero"/></clipPath><clipPath id="995b677de7"><path d="M 850.300781 312.035156 L 2137 312.035156 L 2137 1948 L 850.300781 1948 Z M 850.300781 312.035156 " clip-rule="nonzero"/></clipPath><clipPath id="32d7082c99"><rect x="0" width="2155" y="0" height="2243"/></clipPath></defs><g clip-path="url(#07f4e1b2dc)"><g transform="matrix(1, 0, 0, 1, 0.000000000000000056, 6)"><g clip-path="url(#32d7082c99)"><path fill="#e6007e" d="M 937.378906 944.863281 L 937.378906 692.597656 L 1021.695312 692.597656 C 1053.15625 692.597656 1078.09375 700.589844 1096.476562 716.570312 C 1114.859375 732.550781 1124.050781 754.351562 1124.050781 781.980469 C 1124.050781 809.605469 1114.859375 831.355469 1096.476562 847.203125 C 1078.09375 863.054688 1053.183594 870.992188 1021.695312 870.992188 L 1001.144531 870.992188 L 1001.144531 944.863281 L 937.351562 944.863281 Z M 1058.09375 781.980469 C 1058.09375 769.496094 1054.90625 760.488281 1048.535156 754.953125 C 1042.164062 749.417969 1032.738281 746.675781 1020.257812 746.675781 L 1001.167969 746.675781 L 1001.167969 816.941406 L 1020.257812 816.941406 C 1032.738281 816.941406 1042.164062 814.175781 1048.535156 808.664062 C 1054.90625 803.128906 1058.09375 794.25 1058.09375 782.003906 Z M 1058.09375 781.980469 " fill-opacity="1" fill-rule="nonzero"/><path fill="#e6007e" d="M 1289.464844 944.863281 L 1277.925781 898.382812 L 1195.753906 898.382812 L 1184.210938 944.863281 L 1118.617188 944.863281 C 1129.898438 901.152344 1143.371094 855.613281 1158.988281 808.300781 C 1174.601562 760.960938 1189.484375 722.417969 1203.664062 692.625 L 1269.960938 692.625 C 1284.140625 722.652344 1299.152344 761.402344 1315.003906 808.847656 C 1330.851562 856.292969 1344.300781 901.648438 1355.371094 944.886719 L 1289.414062 944.886719 Z M 1236.851562 760.722656 C 1229.878906 775.867188 1220.871094 803.730469 1209.824219 844.332031 L 1263.875 844.332031 C 1252.832031 803.730469 1243.824219 775.867188 1236.851562 760.722656 Z M 1236.851562 760.722656 " fill-opacity="1" fill-rule="nonzero"/><path fill="#e6007e" d="M 1578.808594 944.863281 L 1511.074219 944.863281 L 1481.515625 874.960938 C 1476.710938 863.183594 1467.703125 857.308594 1454.492188 857.308594 L 1444.75 857.308594 L 1444.75 944.886719 L 1380.59375 944.886719 L 1380.59375 692.625 L 1461.304688 692.625 C 1492.769531 692.625 1517.523438 699.464844 1535.539062 713.175781 C 1553.558594 726.859375 1562.566406 745.605469 1562.566406 769.394531 C 1562.566406 786.941406 1558.960938 801.09375 1551.753906 811.929688 C 1544.546875 822.738281 1533.371094 831.015625 1518.226562 836.785156 C 1530.238281 841.589844 1539.980469 852.871094 1547.421875 870.652344 L 1578.78125 944.886719 Z M 1458.460938 746.675781 L 1444.777344 746.675781 L 1444.777344 803.597656 L 1458.460938 803.597656 C 1484.152344 803.597656 1497.027344 794.121094 1497.027344 775.136719 C 1497.027344 764.5625 1493.789062 757.171875 1487.285156 752.96875 C 1480.8125 748.765625 1471.175781 746.648438 1458.460938 746.648438 Z M 1458.460938 746.675781 " fill-opacity="1" fill-rule="nonzero"/><path fill="#e6007e" d="M 1606.929688 944.863281 L 1606.929688 692.597656 L 1670.71875 692.597656 L 1670.71875 944.863281 Z M 1606.929688 944.863281 " fill-opacity="1" fill-rule="nonzero"/><path fill="#e6007e" d="M 1703.125 934.050781 L 1714.664062 880.367188 C 1724.039062 884.203125 1734.535156 887.441406 1746.207031 890.105469 C 1757.851562 892.742188 1769.082031 894.074219 1779.890625 894.074219 C 1790.699219 894.074219 1799.160156 892.222656 1804.566406 888.488281 C 1809.972656 884.753906 1812.6875 879.660156 1812.6875 873.160156 C 1812.6875 867.152344 1810.9375 862.296875 1807.464844 858.5625 C 1803.964844 854.855469 1799.109375 851.722656 1792.867188 849.191406 C 1786.628906 846.65625 1779.421875 843.96875 1771.246094 841.09375 C 1746.257812 832.453125 1728.710938 821.929688 1718.632812 809.550781 C 1708.554688 797.175781 1703.488281 782.109375 1703.488281 764.328125 C 1703.488281 740.304688 1711.242188 721.636719 1726.726562 708.292969 C 1742.238281 694.949219 1764.378906 688.289062 1793.207031 688.289062 C 1803.523438 688.289062 1815.246094 689.363281 1828.328125 691.527344 C 1841.410156 693.695312 1853.367188 697.300781 1864.179688 702.339844 L 1851.933594 754.953125 C 1833.417969 747.277344 1815.0625 743.414062 1796.785156 743.414062 C 1777.566406 743.414062 1767.957031 749.652344 1767.957031 762.160156 C 1767.957031 767.460938 1769.628906 772.082031 1772.996094 776.023438 C 1776.367188 779.996094 1786.210938 784.980469 1802.554688 790.988281 C 1824.410156 798.925781 1840.261719 806.730469 1850.128906 814.410156 C 1859.972656 822.113281 1866.945312 830.808594 1871.019531 840.546875 C 1875.09375 850.285156 1877.15625 861.019531 1877.15625 872.792969 C 1877.15625 896.582031 1868.695312 915.25 1851.75 928.828125 C 1834.804688 942.40625 1811.800781 949.195312 1782.738281 949.195312 C 1771.691406 949.195312 1758.714844 948.046875 1743.832031 945.777344 C 1728.921875 943.503906 1715.371094 939.585938 1703.121094 934.050781 Z M 1703.125 934.050781 " fill-opacity="1" fill-rule="nonzero"/><path fill="#214194" d="M 1115.589844 1216.054688 L 1054.671875 1216.054688 L 1028.089844 1153.203125 C 1023.757812 1142.628906 1015.660156 1137.328125 1003.78125 1137.328125 L 995.035156 1137.328125 L 995.035156 1216.054688 L 937.351562 1216.054688 L 937.351562 989.25 L 1009.941406 989.25 C 1038.246094 989.25 1060.496094 995.414062 1076.683594 1007.710938 C 1092.875 1020.011719 1100.992188 1036.878906 1100.992188 1058.265625 C 1100.992188 1074.035156 1097.757812 1086.777344 1091.28125 1096.492188 C 1084.804688 1106.203125 1074.75 1113.671875 1061.148438 1118.84375 C 1071.957031 1123.175781 1080.707031 1133.308594 1087.390625 1149.289062 L 1115.589844 1216.027344 Z M 1007.382812 1037.84375 L 995.058594 1037.84375 L 995.058594 1089.050781 L 1007.382812 1089.050781 C 1030.492188 1089.050781 1042.058594 1080.511719 1042.058594 1063.460938 C 1042.058594 1053.957031 1039.136719 1047.324219 1033.3125 1043.535156 C 1027.488281 1039.75 1018.847656 1037.871094 1007.382812 1037.871094 Z M 1007.382812 1037.84375 " fill-opacity="1" fill-rule="nonzero"/><path fill="#214194" d="M 1278.238281 1216.054688 L 1267.871094 1174.25 L 1194.003906 1174.25 L 1183.636719 1216.054688 L 1124.675781 1216.054688 C 1134.835938 1176.730469 1146.921875 1135.816406 1160.972656 1093.253906 C 1175.019531 1050.691406 1188.414062 1016.042969 1201.15625 989.25 L 1260.769531 989.25 C 1273.511719 1016.25 1287.011719 1051.082031 1301.269531 1093.75 C 1315.523438 1136.414062 1327.613281 1177.175781 1337.5625 1216.054688 Z M 1230.949219 1050.484375 C 1224.683594 1064.085938 1216.589844 1089.152344 1206.640625 1125.65625 L 1255.234375 1125.65625 C 1245.285156 1089.152344 1237.191406 1064.085938 1230.925781 1050.484375 Z M 1230.949219 1050.484375 " fill-opacity="1" fill-rule="nonzero"/><path fill="#214194" d="M 1360.226562 1216.054688 L 1360.226562 989.25 L 1441.878906 989.25 C 1458.300781 989.25 1473.472656 991.785156 1487.417969 996.875 C 1501.359375 1001.941406 1513.449219 1009.355469 1523.710938 1019.070312 C 1533.972656 1028.785156 1541.859375 1040.71875 1547.367188 1054.871094 C 1552.878906 1069.023438 1555.621094 1084.636719 1555.621094 1101.6875 C 1555.621094 1118.738281 1552.878906 1135.109375 1547.367188 1149.472656 C 1541.859375 1163.832031 1533.972656 1175.949219 1523.710938 1185.765625 C 1513.449219 1195.609375 1501.359375 1203.105469 1487.417969 1208.273438 C 1473.472656 1213.46875 1458.300781 1216.054688 1441.878906 1216.054688 Z M 1496.292969 1101.6875 C 1496.292969 1079.882812 1491.648438 1063.773438 1482.351562 1053.40625 C 1473.054688 1043.039062 1459.035156 1037.84375 1440.234375 1037.84375 L 1417.542969 1037.84375 L 1417.542969 1167.460938 L 1440.234375 1167.460938 C 1459.035156 1167.460938 1473.054688 1162.109375 1482.351562 1151.429688 C 1491.648438 1140.75 1496.292969 1124.167969 1496.292969 1101.6875 Z M 1496.292969 1101.6875 " fill-opacity="1" fill-rule="nonzero"/><path fill="#214194" d="M 1584.761719 989.25 L 1642.101562 989.25 L 1642.101562 1216.054688 L 1584.761719 1216.054688 Z M 1584.761719 989.25 " fill-opacity="1" fill-rule="nonzero"/><path fill="#214194" d="M 1884.46875 1102.652344 C 1884.46875 1119.9375 1882.039062 1135.867188 1877.183594 1150.4375 C 1872.324219 1165.007812 1865.25 1177.4375 1855.953125 1187.699219 C 1846.65625 1197.960938 1835.429688 1205.898438 1822.242188 1211.511719 C 1809.058594 1217.125 1794.589844 1219.945312 1778.820312 1219.945312 C 1763.050781 1219.945312 1748.242188 1217.125 1735.082031 1211.511719 C 1721.898438 1205.898438 1710.667969 1197.960938 1701.375 1187.699219 C 1692.078125 1177.4375 1685.003906 1165.007812 1680.144531 1150.4375 C 1675.289062 1135.867188 1672.859375 1119.9375 1672.859375 1102.652344 C 1672.859375 1085.367188 1675.289062 1069.4375 1680.144531 1054.871094 C 1685.003906 1040.300781 1692.078125 1027.871094 1701.375 1017.609375 C 1710.667969 1007.347656 1721.898438 999.410156 1735.082031 993.792969 C 1748.269531 988.179688 1762.839844 985.359375 1778.820312 985.359375 C 1794.800781 985.359375 1809.058594 988.179688 1822.242188 993.792969 C 1835.429688 999.410156 1846.65625 1007.347656 1855.953125 1017.609375 C 1865.25 1027.871094 1872.324219 1040.300781 1877.183594 1054.871094 C 1882.039062 1069.4375 1884.46875 1085.394531 1884.46875 1102.652344 Z M 1732.183594 1102.652344 C 1732.183594 1124.039062 1736.234375 1140.515625 1744.328125 1152.054688 C 1752.421875 1163.625 1763.9375 1169.394531 1778.847656 1169.394531 C 1793.753906 1169.394531 1805.191406 1163.625 1813.183594 1152.054688 C 1821.171875 1140.515625 1825.167969 1124.039062 1825.167969 1102.652344 C 1825.167969 1081.269531 1821.171875 1064.792969 1813.183594 1053.25 C 1805.191406 1041.710938 1793.730469 1035.914062 1778.847656 1035.914062 C 1763.960938 1035.914062 1752.449219 1041.683594 1744.328125 1053.25 C 1736.234375 1064.816406 1732.183594 1081.269531 1732.183594 1102.652344 Z M 1732.183594 1102.652344 " fill-opacity="1" fill-rule="nonzero"/><path fill="#214194" d="M 937.378906 1490.304688 L 947.746094 1441.996094 C 956.179688 1445.445312 965.632812 1448.367188 976.101562 1450.746094 C 986.574219 1453.121094 996.679688 1454.320312 1006.417969 1454.320312 C 1016.15625 1454.320312 1023.757812 1452.652344 1028.613281 1449.308594 C 1033.46875 1445.964844 1035.898438 1441.371094 1035.898438 1435.523438 C 1035.898438 1430.117188 1034.332031 1425.753906 1031.199219 1422.386719 C 1028.066406 1419.046875 1023.679688 1416.226562 1018.0625 1413.953125 C 1012.449219 1411.683594 1005.949219 1409.253906 998.609375 1406.667969 C 976.128906 1398.886719 960.359375 1389.433594 951.269531 1378.3125 C 942.183594 1367.1875 937.667969 1353.609375 937.667969 1337.628906 C 937.667969 1316.007812 944.636719 1299.21875 958.582031 1287.207031 C 972.527344 1275.222656 992.449219 1269.21875 1018.402344 1269.21875 C 1027.699219 1269.21875 1038.222656 1270.183594 1050 1272.140625 C 1061.773438 1274.074219 1072.53125 1277.339844 1082.246094 1281.882812 L 1071.226562 1329.222656 C 1054.59375 1322.300781 1038.039062 1318.855469 1021.613281 1318.855469 C 1004.328125 1318.855469 995.6875 1324.46875 995.6875 1335.722656 C 995.6875 1340.476562 997.199219 1344.628906 1000.230469 1348.203125 C 1003.257812 1351.78125 1012.109375 1356.273438 1026.8125 1361.652344 C 1046.472656 1368.78125 1060.730469 1375.804688 1069.609375 1382.722656 C 1078.460938 1389.644531 1084.726562 1397.476562 1088.40625 1406.222656 C 1092.089844 1414.972656 1093.917969 1424.660156 1093.917969 1435.234375 C 1093.917969 1456.621094 1086.292969 1473.433594 1071.070312 1485.65625 C 1055.820312 1497.875 1035.140625 1503.960938 1008.976562 1503.960938 C 999.027344 1503.960938 987.355469 1502.941406 973.960938 1500.878906 C 960.566406 1498.816406 948.347656 1495.316406 937.328125 1490.328125 Z M 937.378906 1490.304688 " fill-opacity="1" fill-rule="nonzero"/><path fill="#214194" d="M 1309.230469 1500.015625 L 1251.867188 1500.015625 L 1251.867188 1409.566406 L 1177.292969 1409.566406 L 1177.292969 1500.015625 L 1119.925781 1500.015625 L 1119.925781 1273.082031 L 1177.292969 1273.082031 L 1177.292969 1360.949219 L 1251.867188 1360.949219 L 1251.867188 1273.082031 L 1309.230469 1273.082031 Z M 1309.230469 1500.015625 " fill-opacity="1" fill-rule="nonzero"/><path fill="#214194" d="M 1551.703125 1386.5625 C 1551.703125 1403.847656 1549.273438 1419.800781 1544.417969 1434.371094 C 1539.5625 1448.96875 1532.484375 1461.398438 1523.1875 1471.660156 C 1513.894531 1481.921875 1502.664062 1489.859375 1489.480469 1495.472656 C 1476.292969 1501.085938 1461.800781 1503.90625 1446.03125 1503.90625 C 1430.257812 1503.90625 1415.453125 1501.085938 1402.265625 1495.472656 C 1389.082031 1489.859375 1377.851562 1481.921875 1368.558594 1471.660156 C 1359.261719 1461.398438 1352.1875 1448.96875 1347.328125 1434.371094 C 1342.472656 1419.777344 1340.042969 1403.847656 1340.042969 1386.5625 C 1340.042969 1369.277344 1342.472656 1353.324219 1347.328125 1338.753906 C 1352.1875 1324.15625 1359.261719 1311.726562 1368.558594 1301.464844 C 1377.851562 1291.203125 1389.082031 1283.265625 1402.265625 1277.652344 C 1415.453125 1272.039062 1430.050781 1269.21875 1446.03125 1269.21875 C 1462.011719 1269.21875 1476.292969 1272.039062 1489.480469 1277.652344 C 1502.664062 1283.265625 1513.894531 1291.203125 1523.1875 1301.464844 C 1532.484375 1311.726562 1539.5625 1324.15625 1544.417969 1338.753906 C 1549.273438 1353.347656 1551.703125 1369.277344 1551.703125 1386.5625 Z M 1399.34375 1386.5625 C 1399.34375 1407.949219 1403.390625 1424.449219 1411.511719 1435.992188 C 1419.605469 1447.558594 1431.121094 1453.328125 1446.03125 1453.328125 C 1460.941406 1453.328125 1472.402344 1447.558594 1480.394531 1435.992188 C 1488.382812 1424.425781 1492.378906 1407.949219 1492.378906 1386.5625 C 1492.378906 1365.175781 1488.382812 1348.675781 1480.394531 1337.132812 C 1472.402344 1325.566406 1460.941406 1319.796875 1446.03125 1319.796875 C 1431.121094 1319.796875 1419.605469 1325.566406 1411.511719 1337.132812 C 1403.417969 1348.699219 1399.34375 1365.175781 1399.34375 1386.5625 Z M 1399.34375 1386.5625 " fill-opacity="1" fill-rule="nonzero"/><path fill="#214194" d="M 1784.460938 1445.574219 C 1790.074219 1427.84375 1796.339844 1401.863281 1803.261719 1367.605469 C 1810.179688 1333.347656 1815.351562 1301.855469 1818.824219 1273.109375 L 1877.183594 1273.109375 C 1871.777344 1311.363281 1863.683594 1352.042969 1852.871094 1395.152344 C 1842.0625 1438.261719 1830.597656 1473.226562 1818.507812 1500.015625 L 1755.605469 1500.015625 C 1742.628906 1465.652344 1730.539062 1425.78125 1719.285156 1380.398438 C 1708.058594 1425.78125 1695.941406 1465.652344 1682.992188 1500.015625 L 1620.089844 1500.015625 C 1608.417969 1472.363281 1597.007812 1436.644531 1585.882812 1392.882812 C 1574.757812 1349.117188 1566.585938 1309.195312 1561.417969 1273.109375 L 1619.777344 1273.109375 C 1623.222656 1301.855469 1628.417969 1333.347656 1635.339844 1367.605469 C 1642.257812 1401.863281 1648.523438 1427.84375 1654.136719 1445.574219 C 1661.476562 1425.46875 1669.203125 1398.78125 1677.324219 1365.492188 C 1685.417969 1332.226562 1691.113281 1301.414062 1694.351562 1273.109375 L 1744.589844 1273.109375 C 1746.3125 1287.601562 1749.027344 1304.597656 1752.683594 1324.15625 C 1756.363281 1343.714844 1761.117188 1364.785156 1766.941406 1387.371094 C 1772.761719 1409.957031 1778.613281 1429.359375 1784.433594 1445.574219 Z M 1784.460938 1445.574219 " fill-opacity="1" fill-rule="nonzero"/><path fill="#214194" d="M 279.390625 1834.429688 L 245.457031 1805.113281 C 355.628906 1677.613281 499.242188 1463.105469 557.90625 1165.101562 C 611.625 892.097656 571.644531 658.152344 528.667969 509.972656 L 571.753906 497.476562 C 616.136719 650.40625 657.410156 891.90625 601.933594 1173.765625 C 541.382812 1481.410156 393.125 1702.851562 279.417969 1834.457031 Z M 279.390625 1834.429688 " fill-opacity="1" fill-rule="nonzero"/><path fill="#214194" d="M 204.777344 1937.847656 C 201.886719 1937.847656 198.917969 1937.28125 196.058594 1936.09375 C 187.554688 1932.558594 182.371094 1923.867188 182.34375 1914.632812 C 182.261719 1893.144531 183.828125 1871.519531 186.988281 1850.328125 C 200.996094 1755.871094 247.105469 1663.84375 320.316406 1584.152344 C 388.699219 1509.753906 477.78125 1450.578125 571.132812 1417.539062 C 667.589844 1383.414062 770.820312 1375.449219 877.964844 1393.835938 L 870.378906 1438.054688 C 770.875 1420.964844 675.253906 1428.28125 586.117188 1459.839844 C 499.539062 1490.480469 416.90625 1545.386719 353.386719 1614.523438 C 298.179688 1674.589844 259.820312 1741.96875 240.898438 1811.589844 C 295.699219 1735.03125 385.160156 1644.300781 518.03125 1604.078125 C 567.082031 1589.230469 669.128906 1558.320312 780.429688 1604.859375 C 902.152344 1655.71875 954.902344 1766.375 973.609375 1818.285156 C 978.039062 1830.570312 971.046875 1844.011719 958.464844 1847.46875 C 947.207031 1850.574219 935.382812 1844.5 931.46875 1833.484375 C 915.273438 1788.160156 869.246094 1690.570312 763.152344 1646.242188 C 666.722656 1605.9375 578.476562 1632.664062 531.070312 1647.027344 C 350.714844 1701.636719 256.957031 1859.804688 225.023438 1925.269531 C 221.21875 1933.097656 213.308594 1937.875 204.882812 1937.875 Z M 204.777344 1937.847656 " fill-opacity="1" fill-rule="nonzero"/><path fill="#214194" d="M 959.410156 1847.117188 C 948.828125 1853.785156 934.816406 1850.492188 928.285156 1839.800781 C 873.105469 1749.449219 826.320312 1654.34375 789.09375 1556.808594 C 752.597656 1461.136719 689.320312 1261.125 675.523438 996.542969 C 671.988281 928.675781 671.988281 860 675.523438 792.429688 L 720.3125 794.777344 C 716.855469 860.78125 716.855469 927.890625 720.3125 994.21875 C 734.265625 1262.3125 802.378906 1465.804688 830.992188 1540.824219 C 867.246094 1635.824219 912.816406 1728.445312 966.589844 1816.476562 C 972.988281 1826.953125 969.777344 1840.585938 959.382812 1847.117188 Z M 959.410156 1847.117188 " fill-opacity="1" fill-rule="nonzero"/><g clip-path="url(#995b677de7)"><path fill="#214194" d="M 2136.910156 1104.539062 L 2135.996094 1080.917969 C 2124.671875 881.007812 2038.636719 692.78125 1897.101562 551.675781 C 1760.460938 415.339844 1579.886719 330.894531 1387.070312 315.660156 L 1371.894531 314.800781 L 1348.949219 314.3125 C 1348.214844 314.3125 1345.09375 313.457031 1345.828125 312.964844 L 1294.550781 313.148438 C 1286.226562 314.863281 1277.292969 314.25 1268.175781 314.800781 L 1253.183594 315.660156 C 1107.179688 327.222656 968.398438 378.503906 850.300781 461.722656 C 864.617188 469.25 878.691406 477.144531 892.519531 485.464844 C 938.597656 454.808594 988.101562 428.925781 1040.484375 408.546875 C 1219.160156 339.035156 1418.769531 338.667969 1597.691406 407.691406 C 1799.503906 485.464844 1960.621094 645.113281 2040.230469 846.1875 C 2111.210938 1025.296875 2112.433594 1225.882812 2043.59375 1405.90625 C 1965.207031 1610.714844 1802.804688 1773.976562 1597.386719 1853.09375 C 1415.339844 1923.222656 1213.042969 1921.386719 1032.957031 1849.179688 C 1014.90625 1841.957031 997.21875 1834.003906 979.902344 1825.5 C 967.296875 1835.535156 954.386719 1845.261719 941.167969 1854.5625 C 1042.5 1907.800781 1154.664062 1939.679688 1270.808594 1946.230469 L 1294.425781 1947.148438 L 1347.296875 1947.148438 C 1347.296875 1947.148438 1369.691406 1946.230469 1369.691406 1946.230469 C 1646.953125 1930.625 1897.835938 1771.28125 2033.558594 1529.390625 C 2094.078125 1421.574219 2131.097656 1301.699219 2136.054688 1178.398438 L 2136.972656 1156 L 2136.972656 1104.601562 Z M 2136.910156 1104.539062 " fill-opacity="1" fill-rule="nonzero"/></g></g></g></g></svg>