<svg xmlns="http://www.w3.org/2000/svg" xmlns:xlink="http://www.w3.org/1999/xlink" width="3000" zoomAndPan="magnify" viewBox="0 0 2250 2250.000011" height="3000" preserveAspectRatio="xMidYMid meet" version="1.0"><defs><g/><clipPath id="6bcde3671d"><path d="M 0.367188 0.796875 L 1647.71875 0.796875 L 1647.71875 1648.1875 L 0.367188 1648.1875 Z M 0.367188 0.796875 " clip-rule="nonzero"/></clipPath><clipPath id="4461d3841f"><rect x="0" width="870" y="0" height="571"/></clipPath><clipPath id="63602477b0"><rect x="0" width="1648" y="0" height="1649"/></clipPath></defs><g transform="matrix(1, 0, 0, 1, 288, 345)"><g clip-path="url(#63602477b0)"><g clip-path="url(#6bcde3671d)"><path fill="#214194" d="M 824.035156 0.796875 C 369.40625 0.796875 0.367188 369.835938 0.367188 824.464844 C 0.367188 1279.089844 369.40625 1648.132812 824.035156 1648.132812 C 1278.660156 1648.132812 1647.703125 1279.089844 1647.703125 824.464844 C 1647.703125 369.835938 1278.660156 0.796875 824.035156 0.796875 Z M 824.035156 46.554688 C 1253.933594 46.554688 1601.941406 394.566406 1601.941406 824.464844 C 1601.941406 1254.363281 1253.933594 1602.371094 824.035156 1602.371094 C 394.136719 1602.371094 46.125 1254.363281 46.125 824.464844 C 46.125 394.566406 394.136719 46.554688 824.035156 46.554688 Z M 824.035156 46.554688 " fill-opacity="1" fill-rule="nonzero"/></g><g transform="matrix(1, 0, 0, 1, 551, 821)"><g clip-path="url(#4461d3841f)"><g fill="#e6007e" fill-opacity="1"><g transform="translate(5.898495, 451.119757)"><g><path d="M 52.90625 1.8125 C 38.726562 1.8125 28.3125 -1.816406 21.65625 -9.078125 C 15 -16.335938 11.671875 -26.800781 11.671875 -40.46875 L 11.671875 -140.3125 L 37.609375 -140.3125 L 37.609375 -38.640625 C 37.609375 -32.242188 38.945312 -27.617188 41.625 -24.765625 C 44.3125 -21.910156 48.070312 -20.484375 52.90625 -20.484375 C 57.75 -20.484375 61.507812 -21.910156 64.1875 -24.765625 C 66.875 -27.617188 68.21875 -32.242188 68.21875 -38.640625 L 68.21875 -118.265625 C 68.21875 -128.128906 67.304688 -136.734375 65.484375 -144.078125 C 63.671875 -151.429688 60 -159.253906 54.46875 -167.546875 L 30.34375 -202.046875 C 25.675781 -208.785156 21.957031 -215.3125 19.1875 -221.625 C 16.425781 -227.9375 14.484375 -234.8125 13.359375 -242.25 C 12.234375 -249.6875 11.671875 -258.332031 11.671875 -268.1875 L 11.671875 -338.46875 C 11.671875 -352.132812 15 -362.554688 21.65625 -369.734375 C 28.3125 -376.910156 38.726562 -380.5 52.90625 -380.5 C 66.914062 -380.5 77.289062 -376.910156 84.03125 -369.734375 C 90.78125 -362.554688 94.15625 -352.132812 94.15625 -338.46875 L 94.15625 -246.40625 L 68.21875 -246.40625 L 68.21875 -340.296875 C 68.21875 -346.515625 66.875 -351.050781 64.1875 -353.90625 C 61.507812 -356.757812 57.75 -358.1875 52.90625 -358.1875 C 48.070312 -358.1875 44.3125 -356.757812 41.625 -353.90625 C 38.945312 -351.050781 37.609375 -346.515625 37.609375 -340.296875 L 37.609375 -268.1875 C 37.609375 -260.582031 38.082031 -253.96875 39.03125 -248.34375 C 39.988281 -242.726562 41.457031 -237.628906 43.4375 -233.046875 C 45.425781 -228.460938 48.066406 -223.75 51.359375 -218.90625 L 75.46875 -184.40625 C 80.144531 -177.832031 83.820312 -171.429688 86.5 -165.203125 C 89.175781 -158.984375 91.117188 -152.195312 92.328125 -144.84375 C 93.546875 -137.5 94.15625 -128.640625 94.15625 -118.265625 L 94.15625 -40.46875 C 94.15625 -26.800781 90.78125 -16.335938 84.03125 -9.078125 C 77.289062 -1.816406 66.914062 1.8125 52.90625 1.8125 Z M 52.90625 1.8125 "/></g></g></g><g fill="#e6007e" fill-opacity="1"><g transform="translate(111.707296, 451.119757)"><g><path d="M 53.6875 1.8125 C 39.332031 1.8125 28.738281 -1.816406 21.90625 -9.078125 C 15.082031 -16.335938 11.671875 -26.800781 11.671875 -40.46875 L 11.671875 -338.46875 C 11.671875 -352.132812 15.082031 -362.554688 21.90625 -369.734375 C 28.738281 -376.910156 39.332031 -380.5 53.6875 -380.5 C 67.863281 -380.5 78.367188 -376.910156 85.203125 -369.734375 C 92.035156 -362.554688 95.453125 -352.132812 95.453125 -338.46875 L 95.453125 -40.46875 C 95.453125 -26.800781 92.035156 -16.335938 85.203125 -9.078125 C 78.367188 -1.816406 67.863281 1.8125 53.6875 1.8125 Z M 37.609375 -38.640625 C 37.609375 -32.242188 38.988281 -27.617188 41.75 -24.765625 C 44.519531 -21.910156 48.5 -20.484375 53.6875 -20.484375 C 58.695312 -20.484375 62.539062 -21.910156 65.21875 -24.765625 C 67.90625 -27.617188 69.25 -32.242188 69.25 -38.640625 L 69.25 -340.296875 C 69.25 -346.515625 67.90625 -351.050781 65.21875 -353.90625 C 62.539062 -356.757812 58.695312 -358.1875 53.6875 -358.1875 C 42.96875 -358.1875 37.609375 -352.222656 37.609375 -340.296875 Z M 37.609375 -38.640625 "/></g></g></g><g fill="#e6007e" fill-opacity="1"><g transform="translate(218.812677, 451.119757)"><g><path d="M 11.671875 0 L 11.671875 -378.671875 L 37.609375 -378.671875 L 37.609375 -23.34375 L 68.734375 -23.34375 L 68.734375 0 Z M 11.671875 0 "/></g></g></g><g fill="#e6007e" fill-opacity="1"><g transform="translate(291.167159, 451.119757)"><g><path d="M 53.6875 1.8125 C 39.332031 1.8125 28.738281 -1.816406 21.90625 -9.078125 C 15.082031 -16.335938 11.671875 -26.800781 11.671875 -40.46875 L 11.671875 -378.671875 L 37.609375 -378.671875 L 37.609375 -38.640625 C 37.609375 -32.242188 38.988281 -27.617188 41.75 -24.765625 C 44.519531 -21.910156 48.5 -20.484375 53.6875 -20.484375 C 58.695312 -20.484375 62.585938 -21.910156 65.359375 -24.765625 C 68.128906 -27.617188 69.515625 -32.242188 69.515625 -38.640625 L 69.515625 -378.671875 L 95.453125 -378.671875 L 95.453125 -40.46875 C 95.453125 -26.800781 92.035156 -16.335938 85.203125 -9.078125 C 78.367188 -1.816406 67.863281 1.8125 53.6875 1.8125 Z M 53.6875 1.8125 "/></g></g></g><g fill="#e6007e" fill-opacity="1"><g transform="translate(398.27254, 451.119757)"><g><path d="M 29.3125 0 L 29.3125 -355.328125 L 3.375 -355.328125 L 3.375 -378.671875 L 80.65625 -378.671875 L 80.65625 -355.328125 L 55.5 -355.328125 L 55.5 0 Z M 29.3125 0 "/></g></g></g><g fill="#e6007e" fill-opacity="1"><g transform="translate(482.297161, 451.119757)"><g><path d="M 11.671875 0 L 11.671875 -378.671875 L 37.609375 -378.671875 L 37.609375 0 Z M 11.671875 0 "/></g></g></g><g fill="#e6007e" fill-opacity="1"><g transform="translate(531.570882, 451.119757)"><g><path d="M 53.6875 1.8125 C 39.332031 1.8125 28.738281 -1.816406 21.90625 -9.078125 C 15.082031 -16.335938 11.671875 -26.800781 11.671875 -40.46875 L 11.671875 -338.46875 C 11.671875 -352.132812 15.082031 -362.554688 21.90625 -369.734375 C 28.738281 -376.910156 39.332031 -380.5 53.6875 -380.5 C 67.863281 -380.5 78.367188 -376.910156 85.203125 -369.734375 C 92.035156 -362.554688 95.453125 -352.132812 95.453125 -338.46875 L 95.453125 -40.46875 C 95.453125 -26.800781 92.035156 -16.335938 85.203125 -9.078125 C 78.367188 -1.816406 67.863281 1.8125 53.6875 1.8125 Z M 37.609375 -38.640625 C 37.609375 -32.242188 38.988281 -27.617188 41.75 -24.765625 C 44.519531 -21.910156 48.5 -20.484375 53.6875 -20.484375 C 58.695312 -20.484375 62.539062 -21.910156 65.21875 -24.765625 C 67.90625 -27.617188 69.25 -32.242188 69.25 -38.640625 L 69.25 -340.296875 C 69.25 -346.515625 67.90625 -351.050781 65.21875 -353.90625 C 62.539062 -356.757812 58.695312 -358.1875 53.6875 -358.1875 C 42.96875 -358.1875 37.609375 -352.222656 37.609375 -340.296875 Z M 37.609375 -38.640625 "/></g></g></g><g fill="#e6007e" fill-opacity="1"><g transform="translate(638.676263, 451.119757)"><g><path d="M 11.671875 0 L 11.671875 -378.671875 L 53.953125 -378.671875 L 75.734375 -142.390625 L 86.890625 -22.828125 L 88.1875 -22.828125 L 87.140625 -142.390625 L 86.625 -378.671875 L 109.453125 -378.671875 L 109.453125 0 L 67.171875 0 L 45.390625 -236.28125 L 34.5 -355.859375 L 32.9375 -355.859375 L 33.984375 -236.28125 L 34.5 0 Z M 11.671875 0 "/></g></g></g><g fill="#e6007e" fill-opacity="1"><g transform="translate(759.785835, 451.119757)"><g><path d="M 52.90625 1.8125 C 38.726562 1.8125 28.3125 -1.816406 21.65625 -9.078125 C 15 -16.335938 11.671875 -26.800781 11.671875 -40.46875 L 11.671875 -140.3125 L 37.609375 -140.3125 L 37.609375 -38.640625 C 37.609375 -32.242188 38.945312 -27.617188 41.625 -24.765625 C 44.3125 -21.910156 48.070312 -20.484375 52.90625 -20.484375 C 57.75 -20.484375 61.507812 -21.910156 64.1875 -24.765625 C 66.875 -27.617188 68.21875 -32.242188 68.21875 -38.640625 L 68.21875 -118.265625 C 68.21875 -128.128906 67.304688 -136.734375 65.484375 -144.078125 C 63.671875 -151.429688 60 -159.253906 54.46875 -167.546875 L 30.34375 -202.046875 C 25.675781 -208.785156 21.957031 -215.3125 19.1875 -221.625 C 16.425781 -227.9375 14.484375 -234.8125 13.359375 -242.25 C 12.234375 -249.6875 11.671875 -258.332031 11.671875 -268.1875 L 11.671875 -338.46875 C 11.671875 -352.132812 15 -362.554688 21.65625 -369.734375 C 28.3125 -376.910156 38.726562 -380.5 52.90625 -380.5 C 66.914062 -380.5 77.289062 -376.910156 84.03125 -369.734375 C 90.78125 -362.554688 94.15625 -352.132812 94.15625 -338.46875 L 94.15625 -246.40625 L 68.21875 -246.40625 L 68.21875 -340.296875 C 68.21875 -346.515625 66.875 -351.050781 64.1875 -353.90625 C 61.507812 -356.757812 57.75 -358.1875 52.90625 -358.1875 C 48.070312 -358.1875 44.3125 -356.757812 41.625 -353.90625 C 38.945312 -351.050781 37.609375 -346.515625 37.609375 -340.296875 L 37.609375 -268.1875 C 37.609375 -260.582031 38.082031 -253.96875 39.03125 -248.34375 C 39.988281 -242.726562 41.457031 -237.628906 43.4375 -233.046875 C 45.425781 -228.460938 48.066406 -223.75 51.359375 -218.90625 L 75.46875 -184.40625 C 80.144531 -177.832031 83.820312 -171.429688 86.5 -165.203125 C 89.175781 -158.984375 91.117188 -152.195312 92.328125 -144.84375 C 93.546875 -137.5 94.15625 -128.640625 94.15625 -118.265625 L 94.15625 -40.46875 C 94.15625 -26.800781 90.78125 -16.335938 84.03125 -9.078125 C 77.289062 -1.816406 66.914062 1.8125 52.90625 1.8125 Z M 52.90625 1.8125 "/></g></g></g></g></g><path fill="#214194" d="M 169.4375 555.277344 L 205.375 555.277344 L 205.375 573.984375 C 212.269531 559.214844 224.574219 552.8125 240.328125 552.8125 C 256.082031 552.8125 269.867188 559.707031 275.773438 575.953125 C 283.160156 560.199219 296.453125 552.8125 314.175781 552.8125 C 331.898438 552.8125 353.558594 567.089844 353.558594 601.550781 L 353.558594 864.933594 L 316.636719 864.933594 L 316.636719 604.507812 C 316.636719 590.230469 311.222656 584.320312 298.914062 584.320312 C 286.605469 584.320312 284.636719 587.277344 279.222656 593.183594 C 279.222656 595.644531 279.222656 598.597656 279.222656 601.550781 L 279.222656 864.933594 L 242.296875 864.933594 L 242.296875 604.507812 C 242.296875 590.230469 236.882812 584.320312 224.574219 584.320312 C 212.269531 584.320312 210.789062 586.785156 205.375 592.691406 L 205.375 864.933594 L 168.453125 864.933594 L 168.453125 555.277344 Z M 169.4375 555.277344 " fill-opacity="1" fill-rule="nonzero"/><path fill="#214194" d="M 549.003906 806.351562 L 549.003906 592.199219 C 549.003906 560.691406 561.804688 541.984375 589.375 541.984375 C 616.941406 541.984375 616.941406 548.382812 623.835938 562.660156 L 623.835938 481.921875 L 660.757812 481.921875 L 660.757812 853.613281 L 625.804688 853.613281 L 625.804688 832.445312 C 618.910156 849.183594 606.605469 856.566406 589.867188 856.566406 C 562.296875 856.566406 549.496094 837.859375 549.496094 806.351562 Z M 604.140625 825.058594 C 612.511719 825.058594 618.417969 822.105469 624.328125 816.199219 L 624.328125 583.335938 C 618.910156 577.429688 612.511719 574.476562 604.140625 574.476562 C 591.835938 574.476562 585.925781 580.382812 585.925781 595.644531 L 585.925781 804.382812 C 585.925781 819.644531 591.835938 825.550781 604.140625 825.550781 Z M 604.140625 825.058594 " fill-opacity="1" fill-rule="nonzero"/><path fill="#214194" d="M 690.789062 482.414062 L 727.710938 482.414062 L 727.710938 527.214844 L 690.789062 527.214844 Z M 691.28125 544.445312 L 728.203125 544.445312 L 728.203125 854.105469 L 691.28125 854.105469 Z M 691.28125 544.445312 " fill-opacity="1" fill-rule="nonzero"/><path fill="#214194" d="M 832.570312 827.519531 C 827.648438 845.242188 813.863281 857.058594 795.15625 857.058594 C 767.09375 857.058594 755.28125 840.320312 755.28125 810.78125 L 755.28125 749.242188 C 755.28125 718.722656 763.15625 702.476562 789.742188 684.753906 L 830.109375 658.167969 L 830.109375 594.167969 C 830.109375 578.90625 823.21875 573.492188 811.402344 573.492188 C 799.585938 573.492188 792.695312 578.90625 792.695312 594.167969 L 792.695312 647.828125 L 755.773438 647.828125 L 755.773438 594.167969 C 755.773438 560.199219 776.941406 542.476562 811.402344 542.476562 C 845.863281 542.476562 866.539062 560.199219 866.539062 594.167969 L 866.539062 774.351562 C 866.539062 804.875 867.523438 829.980469 871.957031 854.597656 L 836.511719 854.597656 C 834.539062 845.734375 833.0625 836.875 832.078125 828.011719 Z M 808.941406 825.550781 C 819.28125 825.550781 826.171875 821.121094 831.09375 812.257812 C 830.109375 800.445312 830.109375 787.644531 830.109375 773.859375 L 830.109375 694.105469 L 810.417969 707.398438 C 797.125 716.75 791.710938 725.121094 791.710938 744.320312 L 791.710938 805.859375 C 791.710938 819.644531 797.617188 825.550781 808.941406 825.550781 Z M 808.941406 825.550781 " fill-opacity="1" fill-rule="nonzero"/><path fill="#e6007e" d="M 1298.785156 461.738281 L 1298.785156 530.660156 L 1272.199219 530.660156 L 1272.199219 461.738281 L 1221.492188 461.738281 L 1221.492188 603.523438 L 1280.078125 603.523438 L 1280.078125 608.9375 C 1280.078125 665.058594 1260.875 715.765625 1213.617188 715.765625 L 1213.617188 776.320312 C 1306.660156 776.320312 1350.96875 694.597656 1350.96875 602.539062 L 1350.96875 461.738281 L 1298.292969 461.738281 Z M 1298.785156 461.738281 " fill-opacity="1" fill-rule="nonzero"/><path fill="#214194" d="M 912.816406 799.953125 L 912.816406 585.800781 C 912.816406 554.292969 925.617188 535.582031 953.1875 535.582031 C 980.753906 535.582031 980.753906 541.984375 987.648438 556.261719 L 987.648438 475.523438 L 1024.570312 475.523438 L 1024.570312 847.210938 L 989.617188 847.210938 L 989.617188 825.550781 C 982.722656 842.289062 970.417969 849.675781 953.679688 849.675781 C 926.109375 849.675781 913.308594 830.964844 913.308594 799.460938 Z M 967.957031 818.167969 C 976.324219 818.167969 982.230469 815.210938 988.140625 809.304688 L 988.140625 576.445312 C 982.722656 570.539062 976.324219 567.582031 967.957031 567.582031 C 955.648438 567.582031 949.738281 573.492188 949.738281 588.753906 L 949.738281 797.488281 C 949.738281 812.75 955.648438 818.660156 967.957031 818.660156 Z M 967.957031 818.167969 " fill-opacity="1" fill-rule="nonzero"/><path fill="#214194" d="M 1144.199219 820.628906 C 1139.277344 838.351562 1125.492188 850.167969 1106.785156 850.167969 C 1078.722656 850.167969 1066.910156 833.429688 1066.910156 803.890625 L 1066.910156 742.351562 C 1066.910156 711.828125 1074.292969 695.582031 1101.371094 677.859375 L 1141.738281 651.277344 L 1141.738281 587.277344 C 1141.738281 572.015625 1134.847656 566.597656 1123.03125 566.597656 C 1111.214844 566.597656 1104.324219 572.015625 1104.324219 587.277344 L 1104.324219 640.9375 L 1067.402344 640.9375 L 1067.402344 587.277344 C 1067.402344 553.308594 1088.570312 535.582031 1123.03125 535.582031 C 1157.492188 535.582031 1178.167969 553.308594 1178.167969 587.277344 L 1178.167969 767.460938 C 1178.167969 797.980469 1179.152344 823.089844 1183.585938 847.703125 L 1148.140625 847.703125 C 1146.167969 838.84375 1144.691406 829.980469 1143.707031 821.121094 Z M 1120.570312 819.152344 C 1130.910156 819.152344 1137.800781 814.71875 1142.722656 805.859375 C 1141.738281 794.042969 1141.738281 781.242188 1141.738281 767.460938 L 1141.738281 687.707031 L 1122.046875 701 C 1108.753906 710.351562 1103.339844 718.722656 1103.339844 737.429688 L 1103.339844 798.964844 C 1103.339844 812.75 1109.246094 818.660156 1120.570312 818.660156 Z M 1120.570312 819.152344 " fill-opacity="1" fill-rule="nonzero"/><path fill="#214194" d="M 1371.644531 796.996094 L 1371.644531 736.445312 L 1408.566406 736.445312 L 1408.566406 796.996094 C 1408.566406 813.242188 1414.96875 819.152344 1426.785156 819.152344 C 1438.597656 819.152344 1445.492188 813.242188 1445.492188 796.996094 L 1445.492188 757.121094 C 1445.492188 734.96875 1441.058594 726.105469 1425.796875 712.320312 L 1402.660156 692.628906 C 1381.984375 674.90625 1371.644531 655.214844 1371.644531 620.753906 L 1371.644531 588.261719 C 1371.644531 553.304688 1392.320312 535.582031 1426.785156 535.582031 C 1461.246094 535.582031 1481.429688 553.308594 1481.429688 588.261719 L 1481.429688 642.414062 L 1445.492188 642.414062 L 1445.492188 588.261719 C 1445.492188 572.507812 1438.597656 566.597656 1426.785156 566.597656 C 1414.96875 566.597656 1408.566406 572.507812 1408.566406 588.261719 L 1408.566406 620.753906 C 1408.566406 640.9375 1412.507812 651.769531 1427.769531 665.058594 L 1450.90625 684.753906 C 1471.089844 701.984375 1481.921875 719.707031 1481.921875 757.121094 L 1481.921875 796.996094 C 1481.921875 831.949219 1461.738281 850.167969 1427.277344 850.167969 C 1392.8125 850.167969 1372.136719 832.445312 1372.136719 796.996094 Z M 1371.644531 796.996094 " fill-opacity="1" fill-rule="nonzero"/><path fill="#e6007e" d="M 453.003906 776.320312 L 453.003906 770.90625 L 511.589844 770.90625 L 511.589844 629.121094 L 382.113281 629.121094 L 382.113281 769.921875 C 382.113281 861.980469 426.914062 943.703125 519.464844 943.703125 L 519.464844 883.152344 C 472.203125 883.152344 453.003906 832.445312 453.003906 776.320312 Z M 432.820312 690.660156 L 460.390625 690.660156 L 460.390625 718.230469 L 432.820312 718.230469 Z M 432.820312 690.660156 " fill-opacity="1" fill-rule="nonzero"/></g></g></svg>